<svg xmlns="http://www.w3.org/2000/svg" xmlns:xlink="http://www.w3.org/1999/xlink" xmlns:lucid="lucid" width="4904.93" height="1961.84"><g transform="translate(0 0)" lucid:page-tab-id="0_0"><path d="M280 203.5a8 8 0 0 1 8-8h836.75a8 8 0 0 1 8 8v25.16a8 8 0 0 1-8 8H288a8 8 0 0 1-8-8z" stroke="#000" stroke-opacity="0" stroke-width="2" fill="#fff" fill-opacity="0"/><use xlink:href="#a" transform="matrix(1,0,0,1,284,199.4999999997673) translate(322.85135802469136 23.657777777777778)"/><use xlink:href="#b" transform="matrix(1,0,0,1,284,199.4999999997673) translate(376.6069135802469 23.657777777777778)"/><use xlink:href="#c" transform="matrix(1,0,0,1,284,199.4999999997673) translate(434.15012345679014 23.657777777777778)"/><path d="M536.87 235.3h346.8M536.9 235.3h-1.03M883.64 235.3h1.02" stroke="#a9afb8" stroke-width="2" fill="none"/><path d="M280 244.66a8 8 0 0 1 8-8h837.7a8 8 0 0 1 8 8v2.84a8 8 0 0 1-8 8H288a8 8 0 0 1-8-8z" stroke="#000" stroke-opacity="0" stroke-width="2" fill="#fff" fill-opacity="0"/><use xlink:href="#d" transform="matrix(1,0,0,1,284.00000000000045,240.655223956666) translate(336.8904012345679 14.917037037037037)"/><use xlink:href="#e" transform="matrix(1,0,0,1,284.00000000000045,240.655223956666) translate(371.68947530864193 14.917037037037037)"/><use xlink:href="#f" transform="matrix(1,0,0,1,284.00000000000045,240.655223956666) translate(406.4035699588477 14.917037037037037)"/><use xlink:href="#g" transform="matrix(1,0,0,1,284.00000000000045,240.655223956666) translate(418.85305555555556 14.917037037037037)"/><use xlink:href="#h" transform="matrix(1,0,0,1,284.00000000000045,240.655223956666) translate(456.24400205761316 14.917037037037037)"/><use xlink:href="#i" transform="matrix(1,0,0,1,284.00000000000045,240.655223956666) translate(481.737829218107 14.917037037037037)"/><path d="M200 1168a8 8 0 0 1 8-8h201.13a8 8 0 0 1 8 8v104a8 8 0 0 1-8 8H208a8 8 0 0 1-8-8z" stroke="#000" stroke-opacity="0" fill="#635dff"/><use xlink:href="#j" transform="matrix(1,0,0,1,204.8,1164.8) translate(75.025 60.7)"/><use xlink:href="#k" transform="matrix(1,0,0,1,204.8,1164.8) translate(107.97500000000001 60.7)"/><path d="M200 488a8 8 0 0 1 8-8h201.13a8 8 0 0 1 8 8v104a8 8 0 0 1-8 8H208a8 8 0 0 1-8-8z" stroke="#000" stroke-opacity="0" fill="#635dff"/><use xlink:href="#l" transform="matrix(1,0,0,1,204.80005011640316,484.8) translate(50 60.7)"/><use xlink:href="#m" transform="matrix(1,0,0,1,204.80005011640316,484.8) translate(89 60.7)"/><use xlink:href="#n" transform="matrix(1,0,0,1,204.80005011640316,484.8) translate(104 60.7)"/><use xlink:href="#o" transform="matrix(1,0,0,1,204.80005011640316,484.8) translate(148 60.7)"/><path d="M200 728a8 8 0 0 1 8-8h201.13a8 8 0 0 1 8 8v104a8 8 0 0 1-8 8H208a8 8 0 0 1-8-8z" stroke="#000" stroke-opacity="0" fill="#635dff"/><use xlink:href="#p" transform="matrix(1,0,0,1,204.8,724.8) translate(16.550000000000008 49.9)"/><use xlink:href="#q" transform="matrix(1,0,0,1,204.8,724.8) translate(49.55000000000001 49.9)"/><use xlink:href="#r" transform="matrix(1,0,0,1,204.8,724.8) translate(128.5 49.9)"/><use xlink:href="#s" transform="matrix(1,0,0,1,204.8,724.8) translate(148.5 49.9)"/><use xlink:href="#t" transform="matrix(1,0,0,1,204.8,724.8) translate(171.45 49.9)"/><use xlink:href="#u" transform="matrix(1,0,0,1,204.8,724.8) translate(49.025000000000006 71.5)"/><use xlink:href="#v" transform="matrix(1,0,0,1,204.8,724.8) translate(94.97500000000001 71.5)"/><use xlink:href="#w" transform="matrix(1,0,0,1,204.8,724.8) translate(133.97500000000002 71.5)"/><path d="M1560 588a8 8 0 0 1 8-8h201.13a8 8 0 0 1 8 8v104a8 8 0 0 1-8 8H1568a8 8 0 0 1-8-8z" stroke="#000" stroke-opacity="0" fill="#54c45e"/><use xlink:href="#x" transform="matrix(1,0,0,1,1564.8,584.8) translate(40.05 60.7)"/><use xlink:href="#r" transform="matrix(1,0,0,1,1564.8,584.8) translate(73 60.7)"/><use xlink:href="#y" transform="matrix(1,0,0,1,1564.8,584.8) translate(93 60.7)"/><use xlink:href="#z" transform="matrix(1,0,0,1,1564.8,584.8) translate(157.95000000000002 60.7)"/><path d="M880 728a8 8 0 0 1 8-8h201.13a8 8 0 0 1 8 8v104a8 8 0 0 1-8 8H888a8 8 0 0 1-8-8z" stroke="#000" stroke-opacity="0" fill="#54c45e"/><use xlink:href="#j" transform="matrix(1,0,0,1,884.8,724.8) translate(44.55 60.7)"/><use xlink:href="#A" transform="matrix(1,0,0,1,884.8,724.8) translate(77.5 60.7)"/><use xlink:href="#B" transform="matrix(1,0,0,1,884.8,724.8) translate(123.45 60.7)"/><path d="M417.57 540.23l447.9 232.23" stroke="#333" fill="none"/><path d="M417.8 539.8l-.45.88-.22-.12v-1.12z" stroke="#333" stroke-width=".05" fill="#333"/><path d="M878.56 779.25l-14.8-2.45 4.27-8.23z" stroke="#333" fill="#333"/><path d="M417.63 540.04l1126.05 98.53" stroke="#333" fill="none"/><path d="M417.68 539.55l-.08 1-.47-.05v-1z" stroke="#333" stroke-width=".05" fill="#333"/><path d="M1558.4 639.86l-14.63 3.37.8-9.23z" stroke="#333" fill="#333"/><path d="M417.63 780h446" stroke="#333" fill="none"/><path d="M417.64 780.5h-.5v-1h.5z" stroke="#333" stroke-width=".05" fill="#333"/><path d="M878.38 780l-14.26 4.63v-9.26z" stroke="#333" fill="#333"/><path d="M560 855.75a8 8 0 0 1 8-8h201.13a8 8 0 0 1 8 8v104a8 8 0 0 1-8 8H568a8 8 0 0 1-8-8z" stroke="#000" stroke-opacity="0" fill="#54c45e"/><use xlink:href="#C" transform="matrix(1,0,0,1,564.8,852.55) translate(72.575 60.7)"/><use xlink:href="#D" transform="matrix(1,0,0,1,564.8,852.55) translate(110.42500000000001 60.7)"/><path d="M417.5 780.33l130.3 116.5" stroke="#333" fill="none"/><path d="M417.84 779.97l-.66.75-.05-.05v-1.34z" stroke="#333" stroke-width=".05" fill="#333"/><path d="M558.8 906.67l-13.73-6.05 6.18-6.9z" stroke="#333" fill="#333"/><path d="M1097.6 779.86l446.72-135.12" stroke="#333" fill="none"/><path d="M1097.76 780.33l-.63.2v-1.05l.34-.1z" stroke="#333" stroke-width=".05" fill="#333"/><path d="M1558.45 640.47l-12.3 8.56-2.7-8.87z" stroke="#333" fill="#333"/><path d="M777.44 907.36l92.28-114.6" stroke="#333" fill="none"/><path d="M777.84 907.66l-.7.9v-1.47z" stroke="#333" stroke-width=".05" fill="#333"/><path d="M879 781.26l-5.35 14.02-7.22-5.82z" stroke="#333" fill="#333"/><path d="M1848.2 843.5a8 8 0 0 1 8-8h201.13a8 8 0 0 1 8 8v104a8 8 0 0 1-8 8h-201.12a8 8 0 0 1-8-8z" stroke="#000" stroke-opacity="0" fill="#54c45e"/><use xlink:href="#E" transform="matrix(1,0,0,1,1853.0072276718543,840.3) translate(39.525000000000006 60.7)"/><use xlink:href="#F" transform="matrix(1,0,0,1,1853.0072276718543,840.3) translate(88.47500000000001 60.7)"/><use xlink:href="#G" transform="matrix(1,0,0,1,1853.0072276718543,840.3) translate(143.47500000000002 60.7)"/><path d="M777.63 907.75l1054.2-9.23" stroke="#333" fill="none"/><path d="M777.64 908.25h-.5v-1h.5z" stroke="#333" stroke-width=".05" fill="#333"/><path d="M1846.6 898.4l-14.23 4.75-.1-9.27z" stroke="#333" fill="#333"/><path d="M2188.2 731.25a8 8 0 0 1 8-8h201.14a8 8 0 0 1 8 8v104a8 8 0 0 1-8 8H2196.2a8 8 0 0 1-8-8z" stroke="#000" stroke-opacity="0" fill="#54c45e"/><use xlink:href="#H" transform="matrix(1,0,0,1,2193.0072276718543,728.05) translate(38.10000000000001 60.7)"/><use xlink:href="#I" transform="matrix(1,0,0,1,2193.0072276718543,728.05) translate(77.05000000000001 60.7)"/><use xlink:href="#J" transform="matrix(1,0,0,1,2193.0072276718543,728.05) translate(144.9 60.7)"/><path d="M2065.7 895.16l110.4-100.86" stroke="#333" fill="none"/><path d="M2066.05 895.52l-.72.66v-1.36l.05-.04z" stroke="#333" stroke-width=".05" fill="#333"/><path d="M2187 784.34l-7.4 13.04-6.25-6.84z" stroke="#333" fill="#333"/><path d="M2188.2 963.5a8 8 0 0 1 8-8h201.14a8 8 0 0 1 8 8v104a8 8 0 0 1-8 8H2196.2a8 8 0 0 1-8-8z" stroke="#000" stroke-opacity="0" fill="#ff8f8f"/><use xlink:href="#K" transform="matrix(1,0,0,1,2193.0072276718543,960.3) translate(20.2 49.9)"/><use xlink:href="#L" transform="matrix(1,0,0,1,2193.0072276718543,960.3) translate(51.15 49.9)"/><use xlink:href="#M" transform="matrix(1,0,0,1,2193.0072276718543,960.3) translate(119 49.9)"/><use xlink:href="#N" transform="matrix(1,0,0,1,2193.0072276718543,960.3) translate(84.00000000000001 71.5)"/><path d="M2065.7 895.85l110.8 108.2" stroke="#333" fill="none"/><path d="M2066.05 895.5l-.7.72v-1.42z" stroke="#333" stroke-width=".05" fill="#333"/><path d="M2187.05 1014.37l-13.45-6.65 6.48-6.63z" stroke="#333" fill="#333"/><path d="M1200 775.75a8 8 0 0 1 8-8h201.13a8 8 0 0 1 8 8v104a8 8 0 0 1-8 8H1208a8 8 0 0 1-8-8z" stroke="#000" stroke-opacity="0" fill="#54c45e"/><use xlink:href="#j" transform="matrix(1,0,0,1,1204.8,772.55) translate(39.05 60.7)"/><use xlink:href="#O" transform="matrix(1,0,0,1,1204.8,772.55) translate(72 60.7)"/><use xlink:href="#P" transform="matrix(1,0,0,1,1204.8,772.55) translate(128.95 60.7)"/><path d="M1560 775.75a8 8 0 0 1 8-8h201.13a8 8 0 0 1 8 8v104a8 8 0 0 1-8 8H1568a8 8 0 0 1-8-8z" stroke="#000" stroke-opacity="0" fill="#ff8f8f"/><use xlink:href="#Q" transform="matrix(1,0,0,1,1564.8,772.55) translate(61.525000000000006 60.7)"/><use xlink:href="#R" transform="matrix(1,0,0,1,1564.8,772.55) translate(106.47500000000001 60.7)"/><path d="M1097.58 780.2l87.56 40.65" stroke="#333" fill="none"/><path d="M1097.8 779.76l-.42.9-.25-.1v-1.1z" stroke="#333" stroke-width=".05" fill="#333"/><path d="M1198.53 827.07l-14.9-1.8 3.9-8.4z" stroke="#333" fill="#333"/><path d="M1417.63 827.75h126" stroke="#333" fill="none"/><path d="M1417.64 828.25h-.5v-1h.5z" stroke="#333" stroke-width=".05" fill="#333"/><path d="M1558.38 827.75l-14.26 4.63v-9.26z" stroke="#333" fill="#333"/><path d="M560 1068a8 8 0 0 1 8-8h201.13a8 8 0 0 1 8 8v104a8 8 0 0 1-8 8H568a8 8 0 0 1-8-8z" stroke="#000" stroke-opacity="0" fill="#54c45e"/><use xlink:href="#S" transform="matrix(1,0,0,1,564.8,1064.8) translate(37.60000000000001 60.7)"/><use xlink:href="#I" transform="matrix(1,0,0,1,564.8,1064.8) translate(77.55000000000001 60.7)"/><use xlink:href="#T" transform="matrix(1,0,0,1,564.8,1064.8) translate(145.4 60.7)"/><path d="M560 1288a8 8 0 0 1 8-8h201.13a8 8 0 0 1 8 8v104a8 8 0 0 1-8 8H568a8 8 0 0 1-8-8z" stroke="#000" stroke-opacity="0" fill="#54c45e"/><use xlink:href="#U" transform="matrix(1,0,0,1,564.8,1284.8) translate(23.100000000000005 49.9)"/><use xlink:href="#V" transform="matrix(1,0,0,1,564.8,1284.8) translate(87.00000000000001 49.9)"/><use xlink:href="#W" transform="matrix(1,0,0,1,564.8,1284.8) translate(112.00000000000001 49.9)"/><use xlink:href="#X" transform="matrix(1,0,0,1,564.8,1284.8) translate(151.95000000000002 49.9)"/><use xlink:href="#Y" transform="matrix(1,0,0,1,564.8,1284.8) translate(84.00000000000001 71.5)"/><path d="M417.5 1220.32l129.95 109.14" stroke="#333" fill="none"/><path d="M417.84 1219.95l-.64.76-.07-.05v-1.3z" stroke="#333" stroke-width=".05" fill="#333"/><path d="M558.76 1338.96l-13.9-5.63 5.96-7.1z" stroke="#333" fill="#333"/><path d="M417.55 1219.73l128.6-81.58" stroke="#333" fill="none"/><path d="M417.83 1220.15l-.7.44v-1.2l.16-.1z" stroke="#333" stroke-width=".05" fill="#333"/><path d="M558.63 1130.24l-9.56 11.56-4.97-7.83z" stroke="#333" fill="#333"/><path d="M1200 988a8 8 0 0 1 8-8h201.13a8 8 0 0 1 8 8v104a8 8 0 0 1-8 8H1208a8 8 0 0 1-8-8z" stroke="#000" stroke-opacity="0" fill="#54c45e"/><use xlink:href="#Z" transform="matrix(1,0,0,1,1204.8,984.8) translate(47.025000000000006 60.7)"/><use xlink:href="#F" transform="matrix(1,0,0,1,1204.8,984.8) translate(80.97500000000001 60.7)"/><use xlink:href="#aa" transform="matrix(1,0,0,1,1204.8,984.8) translate(135.97500000000002 60.7)"/><path d="M777.62 1119.9l406.28-76.85" stroke="#333" fill="none"/><path d="M777.73 1120.4l-.6.1v-1l.4-.1z" stroke="#333" stroke-width=".05" fill="#333"/><path d="M1198.4 1040.3l-13.14 7.2-1.73-9.1z" stroke="#333" fill="#333"/><path d="M2188.2 1183.5a8 8 0 0 1 8-8h201.14a8 8 0 0 1 8 8v104a8 8 0 0 1-8 8H2196.2a8 8 0 0 1-8-8z" stroke="#000" stroke-opacity="0" fill="#54c45e"/><use xlink:href="#ab" transform="matrix(1,0,0,1,2193.0072276718543,1180.3) translate(39.60000000000001 60.7)"/><use xlink:href="#I" transform="matrix(1,0,0,1,2193.0072276718543,1180.3) translate(75.55000000000001 60.7)"/><use xlink:href="#ac" transform="matrix(1,0,0,1,2193.0072276718543,1180.3) translate(143.4 60.7)"/><path d="M1417.6 1040.12l754.73 191.35" stroke="#333" fill="none"/><path d="M1417.75 1039.64l-.25.97-.37-.08v-1.04z" stroke="#333" stroke-width=".05" fill="#333"/><path d="M2186.64 1235.1l-14.97 1 2.28-9z" stroke="#333" fill="#333"/><path d="M2908.2 903.5a8 8 0 0 1 8-8h201.14a8 8 0 0 1 8 8v104a8 8 0 0 1-8 8H2916.2a8 8 0 0 1-8-8z" stroke="#000" stroke-opacity="0" fill="#54c45e"/><use xlink:href="#ad" transform="matrix(1,0,0,1,2913.0072276718543,900.2999999999998) translate(65 60.7)"/><use xlink:href="#ae" transform="matrix(1,0,0,1,2913.0072276718543,900.2999999999998) translate(118 60.7)"/><path d="M2908.2 1043.5a8 8 0 0 1 8-8h201.14a8 8 0 0 1 8 8v104a8 8 0 0 1-8 8H2916.2a8 8 0 0 1-8-8z" stroke="#000" stroke-opacity="0" fill="#635dff"/><use xlink:href="#K" transform="matrix(1,0,0,1,2913.0072276718543,1040.3) translate(17.7 60.7)"/><use xlink:href="#af" transform="matrix(1,0,0,1,2913.0072276718543,1040.3) translate(48.65 60.7)"/><use xlink:href="#ag" transform="matrix(1,0,0,1,2913.0072276718543,1040.3) translate(91.5 60.7)"/><use xlink:href="#ah" transform="matrix(1,0,0,1,2913.0072276718543,1040.3) translate(165.3 60.7)"/><path d="M2405.82 1235.37l486.57-130.87" stroke="#333" fill="none"/><path d="M2405.96 1235.85l-.63.17v-1.04l.37-.1z" stroke="#333" stroke-width=".05" fill="#333"/><path d="M2906.64 1100.66l-12.57 8.18-2.4-8.95z" stroke="#333" fill="#333"/><path d="M2405.8 783.4l486.9 166.8" stroke="#333" fill="none"/><path d="M2405.98 782.94l-.32.95-.32-.12v-1.06z" stroke="#333" stroke-width=".05" fill="#333"/><path d="M2906.68 954.98l-15-.24 3-8.77z" stroke="#333" fill="#333"/><path d="M2405.76 783.5l488.53 303.36" stroke="#333" fill="none"/><path d="M2406.03 783.1l-.52.85-.16-.1v-1.2z" stroke="#333" stroke-width=".05" fill="#333"/><path d="M2906.83 1094.65l-14.56-3.6 4.9-7.87z" stroke="#333" fill="#333"/><path d="M2405.77 1235.26l488.12-271.8" stroke="#333" fill="none"/><path d="M2406.03 1235.7l-.7.37v-1.14l.2-.12z" stroke="#333" stroke-width=".05" fill="#333"/><path d="M2906.8 956.3l-10.22 10.98-4.5-8.1z" stroke="#333" fill="#333"/><path d="M1200 1200.25a8 8 0 0 1 8-8h201.13a8 8 0 0 1 8 8v104a8 8 0 0 1-8 8H1208a8 8 0 0 1-8-8z" stroke="#000" stroke-opacity="0" fill="#54c45e"/><g><use xlink:href="#ai" transform="matrix(1,0,0,1,1204.8,1197.05) translate(26.100000000000005 60.7)"/><use xlink:href="#aj" transform="matrix(1,0,0,1,1204.8,1197.05) translate(65.05000000000001 60.7)"/><use xlink:href="#ak" transform="matrix(1,0,0,1,1204.8,1197.05) translate(84.00000000000001 60.7)"/><use xlink:href="#al" transform="matrix(1,0,0,1,1204.8,1197.05) translate(126.9 60.7)"/></g><path d="M1848.2 1288a8 8 0 0 1 8-8h201.13a8 8 0 0 1 8 8v104a8 8 0 0 1-8 8h-201.12a8 8 0 0 1-8-8z" stroke="#000" stroke-opacity="0" fill="#ff8f8f"/><g><use xlink:href="#Q" transform="matrix(1,0,0,1,1853.0072276718545,1284.8) translate(61.525000000000006 60.7)"/><use xlink:href="#am" transform="matrix(1,0,0,1,1853.0072276718545,1284.8) translate(106.47500000000001 60.7)"/></g><path d="M777.6 1120.15l406.76 127.2" stroke="#333" fill="none"/><path d="M777.77 1119.68l-.3.95-.34-.1v-1.05z" stroke="#333" stroke-width=".05" fill="#333"/><path d="M1198.46 1251.77l-15 .16 2.76-8.85z" stroke="#333" fill="#333"/><path d="M1417.62 1252.35l414.53 84.38" stroke="#333" fill="none"/><path d="M1417.73 1251.86l-.2.98-.4-.08v-1.02z" stroke="#333" stroke-width=".05" fill="#333"/><path d="M1846.62 1339.68l-14.9 1.7 1.85-9.1z" stroke="#333" fill="#333"/><path d="M1417.63 1039.98l754.2-23.96" stroke="#333" fill="none"/><path d="M1417.66 1040.48l-.53.02v-1l.5-.02z" stroke="#333" stroke-width=".05" fill="#333"/><path d="M2186.6 1015.55l-14.12 5.1-.3-9.28z" stroke="#333" fill="#333"/><path d="M777.62 1339.9l406.34-84.32" stroke="#333" fill="none"/><path d="M777.73 1340.38l-.6.13v-1l.4-.1z" stroke="#333" stroke-width=".05" fill="#333"/><path d="M1198.42 1252.58l-13.03 7.44-1.9-9.08z" stroke="#333" fill="#333"/><path d="M1200 1388a8 8 0 0 1 8-8h201.13a8 8 0 0 1 8 8v104a8 8 0 0 1-8 8H1208a8 8 0 0 1-8-8z" stroke="#000" stroke-opacity="0" fill="#54c45e"/><g><use xlink:href="#an" transform="matrix(1,0,0,1,1204.8,1384.8) translate(17.575 60.7)"/><use xlink:href="#r" transform="matrix(1,0,0,1,1204.8,1384.8) translate(42.575 60.7)"/><use xlink:href="#ao" transform="matrix(1,0,0,1,1204.8,1384.8) translate(62.575 60.7)"/><use xlink:href="#ap" transform="matrix(1,0,0,1,1204.8,1384.8) translate(100.475 60.7)"/><use xlink:href="#aq" transform="matrix(1,0,0,1,1204.8,1384.8) translate(150.425 60.7)"/></g><path d="M1417.62 1439.9l414.63-96.2" stroke="#333" fill="none"/><path d="M1417.74 1440.37l-.6.14v-1l.37-.1z" stroke="#333" stroke-width=".05" fill="#333"/><path d="M1846.63 1340.37l-12.85 7.74-2.1-9.03z" stroke="#333" fill="#333"/><path d="M777.6 1340.12l406.46 96.1" stroke="#333" fill="none"/><path d="M777.74 1339.63l-.23.97-.37-.1v-1z" stroke="#333" stroke-width=".05" fill="#333"/><path d="M1198.42 1439.63l-14.94 1.23 2.13-9.03z" stroke="#333" fill="#333"/><path d="M1848.2 588a8 8 0 0 1 8-8h201.13a8 8 0 0 1 8 8v104a8 8 0 0 1-8 8h-201.12a8 8 0 0 1-8-8z" stroke="#000" stroke-opacity="0" fill="#54c45e"/><g><use xlink:href="#ar" transform="matrix(1,0,0,1,1853.0072276718545,584.8) translate(31.12500000000001 60.7)"/><use xlink:href="#as" transform="matrix(1,0,0,1,1853.0072276718545,584.8) translate(89.92500000000001 60.7)"/><use xlink:href="#O" transform="matrix(1,0,0,1,1853.0072276718545,584.8) translate(109.92500000000001 60.7)"/><use xlink:href="#at" transform="matrix(1,0,0,1,1853.0072276718545,584.8) translate(166.875 60.7)"/></g><path d="M2448.2 588a8 8 0 0 1 8-8h201.14a8 8 0 0 1 8 8v104a8 8 0 0 1-8 8H2456.2a8 8 0 0 1-8-8z" stroke="#000" stroke-opacity="0" fill="#ff8f8f"/><g><use xlink:href="#au" transform="matrix(1,0,0,1,2453.0072276718543,584.8) translate(75.025 60.7)"/><use xlink:href="#av" transform="matrix(1,0,0,1,2453.0072276718543,584.8) translate(122.97500000000001 60.7)"/></g><path d="M1777.63 640h54.2" stroke="#333" fill="none"/><path d="M1777.64 640.5h-.5v-1h.5z" stroke="#333" stroke-width=".05" fill="#333"/><path d="M1846.6 640l-14.28 4.63v-9.26z" stroke="#333" fill="#333"/><path d="M2065.84 640h365.98" stroke="#333" fill="none"/><path d="M2065.85 640.5h-.5v-1h.5z" stroke="#333" stroke-width=".05" fill="#333"/><path d="M2446.6 640l-14.28 4.63v-9.26z" stroke="#333" fill="#333"/><path d="M1777.26 640.48l66.56 239.24" stroke="#333" fill="none"/><path d="M1777.75 640.36l-.62.17v-2.4z" stroke="#333" stroke-width=".05" fill="#333"/><path d="M1847.77 893.94l-8.3-12.5 8.95-2.5z" stroke="#333" fill="#333"/><path d="M3220 903.5a8 8 0 0 1 8-8h201.13a8 8 0 0 1 8 8v104a8 8 0 0 1-8 8H3228a8 8 0 0 1-8-8z" stroke="#000" stroke-opacity="0" fill="#ff8f8f"/><g><use xlink:href="#aw" transform="matrix(1,0,0,1,3224.8,900.2999999999998) translate(37.575 60.7)"/><use xlink:href="#ax" transform="matrix(1,0,0,1,3224.8,900.2999999999998) translate(65.475 60.7)"/><use xlink:href="#ay" transform="matrix(1,0,0,1,3224.8,900.2999999999998) translate(100.475 60.7)"/><use xlink:href="#az" transform="matrix(1,0,0,1,3224.8,900.2999999999998) translate(145.425 60.7)"/></g><path d="M3125.84 955.5h77.78" stroke="#333" fill="none"/><path d="M3125.85 956h-.5v-1h.5z" stroke="#333" stroke-width=".05" fill="#333"/><path d="M3218.38 955.5l-14.26 4.63v-9.26z" stroke="#333" fill="#333"/><path d="M3220 688a8 8 0 0 1 8-8h201.13a8 8 0 0 1 8 8v104a8 8 0 0 1-8 8H3228a8 8 0 0 1-8-8z" stroke="#000" stroke-opacity="0" fill="#635dff"/><g><use xlink:href="#aA" transform="matrix(1,0,0,1,3224.8,684.8) translate(46.025000000000006 49.9)"/><use xlink:href="#aB" transform="matrix(1,0,0,1,3224.8,684.8) translate(116.025 49.9)"/><use xlink:href="#aC" transform="matrix(1,0,0,1,3224.8,684.8) translate(47.05 71.5)"/><use xlink:href="#aD" transform="matrix(1,0,0,1,3224.8,684.8) translate(120.95000000000002 71.5)"/></g><path d="M3125.54 955.04L3213.4 755" stroke="#333" fill="none"/><path d="M3126 955.23l-.66 1.5v-1.8z" stroke="#333" stroke-width=".05" fill="#333"/><path d="M3219.35 741.48l-1.5 14.93-8.48-3.72z" stroke="#333" fill="#333"/><defs><path fill="#a9afb8" d="M136-208V0H84v-208H4v-40h212v40h-80" id="aE"/><path fill="#a9afb8" d="M114-157C55-157 80-60 75 0H25v-261h50l-1 109c12-26 28-41 61-42 86-1 58 113 63 194h-50c-7-57 23-157-34-157" id="aF"/><path fill="#a9afb8" d="M185-48c-13 30-37 53-82 52C43 2 14-33 14-96s30-98 90-98c62 0 83 45 84 108H66c0 31 8 55 39 56 18 0 30-7 34-22zm-45-69c5-46-57-63-70-21-2 6-4 13-4 21h74" id="aG"/><g id="a"><use transform="matrix(0.0728395061728395,0,0,0.0728395061728395,0,0)" xlink:href="#aE"/><use transform="matrix(0.0728395061728395,0,0,0.0728395061728395,15.95185185185185,0)" xlink:href="#aF"/><use transform="matrix(0.0728395061728395,0,0,0.0728395061728395,31.9037037037037,0)" xlink:href="#aG"/></g><path fill="#a9afb8" d="M186 0v-106H76V0H24v-248h52v99h110v-99h50V0h-50" id="aH"/><path fill="#a9afb8" d="M24 0v-248h52v208h133V0H24" id="aI"/><g id="b"><use transform="matrix(0.0728395061728395,0,0,0.0728395061728395,0,0)" xlink:href="#aH"/><use transform="matrix(0.0728395061728395,0,0,0.0728395061728395,18.86543209876543,0)" xlink:href="#aE"/><use transform="matrix(0.0728395061728395,0,0,0.0728395061728395,34.81728395061728,0)" xlink:href="#aI"/></g><path fill="#a9afb8" d="M24-248c93 1 206-16 204 79-1 75-69 88-152 82V0H24v-248zm52 121c47 0 100 7 100-41 0-47-54-39-100-39v80" id="aJ"/><path fill="#a9afb8" d="M133-34C117-15 103 5 69 4 32 3 11-16 11-54c-1-60 55-63 116-61 1-26-3-47-28-47-18 1-26 9-28 27l-52-2c7-38 36-58 82-57s74 22 75 68l1 82c-1 14 12 18 25 15v27c-30 8-71 5-69-32zm-48 3c29 0 43-24 42-57-32 0-66-3-65 30 0 17 8 27 23 27" id="aK"/><path fill="#a9afb8" d="M135-150c-39-12-60 13-60 57V0H25l-1-190h47c2 13-1 29 3 40 6-28 27-53 61-41v41" id="aL"/><path fill="#a9afb8" d="M135-194c52 0 70 43 70 98 0 56-19 99-73 100-30 1-46-15-58-35L72 0H24l1-261h50v104c11-23 29-37 60-37zM114-30c31 0 40-27 40-66 0-37-7-63-39-63s-41 28-41 65c0 36 8 64 40 64" id="aM"/><path fill="#a9afb8" d="M25 0v-261h50V0H25" id="aN"/><g id="c"><use transform="matrix(0.0728395061728395,0,0,0.0728395061728395,0,0)" xlink:href="#aJ"/><use transform="matrix(0.0728395061728395,0,0,0.0728395061728395,17.48148148148148,0)" xlink:href="#aK"/><use transform="matrix(0.0728395061728395,0,0,0.0728395061728395,32.04938271604938,0)" xlink:href="#aL"/><use transform="matrix(0.0728395061728395,0,0,0.0728395061728395,42.24691358024691,0)" xlink:href="#aK"/><use transform="matrix(0.0728395061728395,0,0,0.0728395061728395,56.8148148148148,0)" xlink:href="#aM"/><use transform="matrix(0.0728395061728395,0,0,0.0728395061728395,72.76666666666667,0)" xlink:href="#aN"/><use transform="matrix(0.0728395061728395,0,0,0.0728395061728395,80.05061728395061,0)" xlink:href="#aG"/></g><path fill="#a9afb8" d="M30-248c87 1 191-15 191 75 0 78-77 80-158 76V0H30v-248zm33 125c57 0 124 11 124-50 0-59-68-47-124-48v98" id="aO"/><path fill="#a9afb8" d="M141-36C126-15 110 5 73 4 37 3 15-17 15-53c-1-64 63-63 125-63 3-35-9-54-41-54-24 1-41 7-42 31l-33-3c5-37 33-52 76-52 45 0 72 20 72 64v82c-1 20 7 32 28 27v20c-31 9-61-2-59-35zM48-53c0 20 12 33 32 33 41-3 63-29 60-74-43 2-92-5-92 41" id="aP"/><path fill="#a9afb8" d="M84 4C-5 8 30-112 23-190h32v120c0 31 7 50 39 49 72-2 45-101 50-169h31l1 190h-30c-1-10 1-25-2-33-11 22-28 36-60 37" id="aQ"/><path fill="#a9afb8" d="M24 0v-261h32V0H24" id="aR"/><g id="d"><use transform="matrix(0.04248971193415638,0,0,0.04248971193415638,0,0)" xlink:href="#aO"/><use transform="matrix(0.04248971193415638,0,0,0.04248971193415638,10.19753086419753,0)" xlink:href="#aP"/><use transform="matrix(0.04248971193415638,0,0,0.04248971193415638,18.695473251028805,0)" xlink:href="#aQ"/><use transform="matrix(0.04248971193415638,0,0,0.04248971193415638,27.193415637860078,0)" xlink:href="#aR"/></g><path fill="#a9afb8" d="M190 0L58-211 59 0H30v-248h39L202-35l-2-213h31V0h-41" id="aS"/><path fill="#a9afb8" d="M100-194c63 0 86 42 84 106H49c0 40 14 67 53 68 26 1 43-12 49-29l28 8c-11 28-37 45-77 45C44 4 14-33 15-96c1-61 26-98 85-98zm52 81c6-60-76-77-97-28-3 7-6 17-6 28h103" id="aT"/><g id="e"><use transform="matrix(0.04248971193415638,0,0,0.04248971193415638,0,0)" xlink:href="#aS"/><use transform="matrix(0.04248971193415638,0,0,0.04248971193415638,11.004835390946502,0)" xlink:href="#aT"/><use transform="matrix(0.04248971193415638,0,0,0.04248971193415638,19.502777777777776,0)" xlink:href="#aR"/><use transform="matrix(0.04248971193415638,0,0,0.04248971193415638,22.85946502057613,0)" xlink:href="#aR"/></g><path fill="#a9afb8" d="M32 76v-337h29V76H32" id="aU"/><use transform="matrix(0.04248971193415638,0,0,0.04248971193415638,0,0)" xlink:href="#aU" id="f"/><path fill="#a9afb8" d="M153-248C145-148 188 4 80 4 36 3 13-21 6-62l32-5c4 25 16 42 43 43 27 0 39-20 39-49v-147H72v-28h81" id="aV"/><path fill="#a9afb8" d="M117-194c89-4 53 116 60 194h-32v-121c0-31-8-49-39-48C34-167 62-67 57 0H25l-1-190h30c1 10-1 24 2 32 11-22 29-35 61-36" id="aW"/><g id="g"><use transform="matrix(0.04248971193415638,0,0,0.04248971193415638,0,0)" xlink:href="#aV"/><use transform="matrix(0.04248971193415638,0,0,0.04248971193415638,7.648148148148148,0)" xlink:href="#aQ"/><use transform="matrix(0.04248971193415638,0,0,0.04248971193415638,16.14609053497942,0)" xlink:href="#aW"/><use transform="matrix(0.04248971193415638,0,0,0.04248971193415638,24.644032921810698,0)" xlink:href="#aT"/></g><path fill="#a9afb8" d="M101-251c82-7 93 87 43 132L82-64C71-53 59-42 53-27h129V0H18c2-99 128-94 128-182 0-28-16-43-45-43s-46 15-49 41l-32-3c6-41 34-60 81-64" id="aX"/><path fill="#a9afb8" d="M68-38c1 34 0 65-14 84H32c9-13 17-26 17-46H33v-38h35" id="aY"/><g id="h"><use transform="matrix(0.04248971193415638,0,0,0.04248971193415638,0,0)" xlink:href="#aX"/><use transform="matrix(0.04248971193415638,0,0,0.04248971193415638,8.497942386831275,0)" xlink:href="#aX"/><use transform="matrix(0.04248971193415638,0,0,0.04248971193415638,16.99588477366255,0)" xlink:href="#aY"/></g><path fill="#a9afb8" d="M101-251c68 0 85 55 85 127S166 4 100 4C33 4 14-52 14-124c0-73 17-127 87-127zm-1 229c47 0 54-49 54-102s-4-102-53-102c-51 0-55 48-55 102 0 53 5 102 54 102" id="aZ"/><path fill="#a9afb8" d="M126-127c33 6 58 20 58 59 0 88-139 92-164 29-3-8-5-16-6-25l32-3c6 27 21 44 54 44 32 0 52-15 52-46 0-38-36-46-79-43v-28c39 1 72-4 72-42 0-27-17-43-46-43-28 0-47 15-49 41l-32-3c6-42 35-63 81-64 48-1 79 21 79 65 0 36-21 52-52 59" id="ba"/><g id="i"><use transform="matrix(0.04248971193415638,0,0,0.04248971193415638,0,0)" xlink:href="#aX"/><use transform="matrix(0.04248971193415638,0,0,0.04248971193415638,8.497942386831275,0)" xlink:href="#aZ"/><use transform="matrix(0.04248971193415638,0,0,0.04248971193415638,16.99588477366255,0)" xlink:href="#aX"/><use transform="matrix(0.04248971193415638,0,0,0.04248971193415638,25.493827160493822,0)" xlink:href="#ba"/></g><path fill="#fff" d="M100-194c63 0 86 42 84 106H49c0 40 14 67 53 68 26 1 43-12 49-29l28 8c-11 28-37 45-77 45C44 4 14-33 15-96c1-61 26-98 85-98zm52 81c6-60-76-77-97-28-3 7-6 17-6 28h103" id="bb"/><path fill="#fff" d="M141 0L90-78 38 0H4l68-98-65-92h35l48 74 47-74h35l-64 92 68 98h-35" id="bc"/><path fill="#fff" d="M24-231v-30h32v30H24zM24 0v-190h32V0H24" id="bd"/><path fill="#fff" d="M59-47c-2 24 18 29 38 22v24C64 9 27 4 27-40v-127H5v-23h24l9-43h21v43h35v23H59v120" id="be"/><g id="j"><use transform="matrix(0.05,0,0,0.05,0,0)" xlink:href="#bb"/><use transform="matrix(0.05,0,0,0.05,10,0)" xlink:href="#bc"/><use transform="matrix(0.05,0,0,0.05,19,0)" xlink:href="#bd"/><use transform="matrix(0.05,0,0,0.05,22.95,0)" xlink:href="#be"/></g><path fill="#fff" d="M27 0v-27h64v-190l-56 39v-29l58-41h29v221h61V0H27" id="bf"/><path fill="#fff" d="M33 0v-38h34V0H33" id="bg"/><path fill="#fff" d="M126-127c33 6 58 20 58 59 0 88-139 92-164 29-3-8-5-16-6-25l32-3c6 27 21 44 54 44 32 0 52-15 52-46 0-38-36-46-79-43v-28c39 1 72-4 72-42 0-27-17-43-46-43-28 0-47 15-49 41l-32-3c6-42 35-63 81-64 48-1 79 21 79 65 0 36-21 52-52 59" id="bh"/><g id="k"><use transform="matrix(0.05,0,0,0.05,0,0)" xlink:href="#bf"/><use transform="matrix(0.05,0,0,0.05,10,0)" xlink:href="#bg"/><use transform="matrix(0.05,0,0,0.05,15,0)" xlink:href="#bh"/></g><path fill="#fff" d="M141-36C126-15 110 5 73 4 37 3 15-17 15-53c-1-64 63-63 125-63 3-35-9-54-41-54-24 1-41 7-42 31l-33-3c5-37 33-52 76-52 45 0 72 20 72 64v82c-1 20 7 32 28 27v20c-31 9-61-2-59-35zM48-53c0 20 12 33 32 33 41-3 63-29 60-74-43 2-92-5-92 41" id="bi"/><path fill="#fff" d="M143 0L79-87 56-68V0H24v-261h32v163l83-92h37l-77 82L181 0h-38" id="bj"/><g id="l"><use transform="matrix(0.05,0,0,0.05,0,0)" xlink:href="#be"/><use transform="matrix(0.05,0,0,0.05,5,0)" xlink:href="#bi"/><use transform="matrix(0.05,0,0,0.05,15,0)" xlink:href="#bj"/><use transform="matrix(0.05,0,0,0.05,24,0)" xlink:href="#bb"/></g><use transform="matrix(0.05,0,0,0.05,0,0)" xlink:href="#bi" id="m"/><path fill="#fff" d="M135-143c-3-34-86-38-87 0 15 53 115 12 119 90S17 21 10-45l28-5c4 36 97 45 98 0-10-56-113-15-118-90-4-57 82-63 122-42 12 7 21 19 24 35" id="bk"/><g id="n"><use transform="matrix(0.05,0,0,0.05,0,0)" xlink:href="#bk"/><use transform="matrix(0.05,0,0,0.05,9,0)" xlink:href="#bb"/><use transform="matrix(0.05,0,0,0.05,19,0)" xlink:href="#bi"/><use transform="matrix(0.05,0,0,0.05,29,0)" xlink:href="#be"/></g><path fill="#fff" d="M155-56V0h-30v-56H8v-25l114-167h33v167h35v25h-35zm-30-156c-27 46-58 90-88 131h88v-131" id="bl"/><use transform="matrix(0.05,0,0,0.05,0,0)" xlink:href="#bl" id="o"/><g id="p"><use transform="matrix(0.05,0,0,0.05,0,0)" xlink:href="#bi"/><use transform="matrix(0.05,0,0,0.05,10,0)" xlink:href="#bk"/><use transform="matrix(0.05,0,0,0.05,19,0)" xlink:href="#bj"/></g><path fill="#fff" d="M100-194c62-1 85 37 85 99 1 63-27 99-86 99S16-35 15-95c0-66 28-99 85-99zM99-20c44 1 53-31 53-75 0-43-8-75-51-75s-53 32-53 75 10 74 51 75" id="bm"/><path fill="#fff" d="M210-169c-67 3-38 105-44 169h-31v-121c0-29-5-50-35-48C34-165 62-65 56 0H25l-1-190h30c1 10-1 24 2 32 10-44 99-50 107 0 11-21 27-35 58-36 85-2 47 119 55 194h-31v-121c0-29-5-49-35-48" id="bn"/><path fill="#fff" d="M117-194c89-4 53 116 60 194h-32v-121c0-31-8-49-39-48C34-167 62-67 57 0H25l-1-190h30c1 10-1 24 2 32 11-22 29-35 61-36" id="bo"/><g id="q"><use transform="matrix(0.05,0,0,0.05,0,0)" xlink:href="#bk"/><use transform="matrix(0.05,0,0,0.05,9,0)" xlink:href="#bm"/><use transform="matrix(0.05,0,0,0.05,19,0)" xlink:href="#bn"/><use transform="matrix(0.05,0,0,0.05,33.95,0)" xlink:href="#bb"/><use transform="matrix(0.05,0,0,0.05,43.95,0)" xlink:href="#bm"/><use transform="matrix(0.05,0,0,0.05,53.95,0)" xlink:href="#bo"/><use transform="matrix(0.05,0,0,0.05,63.95,0)" xlink:href="#bb"/></g><g id="r"><use transform="matrix(0.05,0,0,0.05,0,0)" xlink:href="#be"/><use transform="matrix(0.05,0,0,0.05,5,0)" xlink:href="#bm"/></g><g id="s"><use transform="matrix(0.05,0,0,0.05,0,0)" xlink:href="#bk"/><use transform="matrix(0.05,0,0,0.05,9,0)" xlink:href="#bd"/><use transform="matrix(0.05,0,0,0.05,12.949999999999998,0)" xlink:href="#be"/></g><g id="t"><use transform="matrix(0.05,0,0,0.05,0,0)" xlink:href="#bm"/><use transform="matrix(0.05,0,0,0.05,10,0)" xlink:href="#bo"/></g><path fill="#fff" d="M106-169C34-169 62-67 57 0H25v-261h32l-1 103c12-21 28-36 61-36 89 0 53 116 60 194h-32v-121c2-32-8-49-39-48" id="bp"/><path fill="#fff" d="M114-163C36-179 61-72 57 0H25l-1-190h30c1 12-1 29 2 39 6-27 23-49 58-41v29" id="bq"/><g id="u"><use transform="matrix(0.05,0,0,0.05,0,0)" xlink:href="#be"/><use transform="matrix(0.05,0,0,0.05,5,0)" xlink:href="#bp"/><use transform="matrix(0.05,0,0,0.05,15,0)" xlink:href="#bb"/><use transform="matrix(0.05,0,0,0.05,25,0)" xlink:href="#bq"/><use transform="matrix(0.05,0,0,0.05,30.950000000000003,0)" xlink:href="#bb"/></g><g id="v"><use transform="matrix(0.05,0,0,0.05,0,0)" xlink:href="#bk"/><use transform="matrix(0.05,0,0,0.05,9,0)" xlink:href="#bb"/><use transform="matrix(0.05,0,0,0.05,19,0)" xlink:href="#bi"/><use transform="matrix(0.05,0,0,0.05,29,0)" xlink:href="#be"/></g><g id="w"><use transform="matrix(0.05,0,0,0.05,0,0)" xlink:href="#bh"/><use transform="matrix(0.05,0,0,0.05,10,0)" xlink:href="#bg"/><use transform="matrix(0.05,0,0,0.05,15,0)" xlink:href="#bf"/></g><path fill="#fff" d="M24 0v-261h32V0H24" id="br"/><g id="x"><use transform="matrix(0.05,0,0,0.05,0,0)" xlink:href="#be"/><use transform="matrix(0.05,0,0,0.05,5,0)" xlink:href="#bi"/><use transform="matrix(0.05,0,0,0.05,15,0)" xlink:href="#br"/><use transform="matrix(0.05,0,0,0.05,18.95,0)" xlink:href="#bj"/></g><path fill="#fff" d="M96-169c-40 0-48 33-48 73s9 75 48 75c24 0 41-14 43-38l32 2c-6 37-31 61-74 61-59 0-76-41-82-99-10-93 101-131 147-64 4 7 5 14 7 22l-32 3c-4-21-16-35-41-35" id="bs"/><g id="y"><use transform="matrix(0.05,0,0,0.05,0,0)" xlink:href="#be"/><use transform="matrix(0.05,0,0,0.05,5,0)" xlink:href="#bb"/><use transform="matrix(0.05,0,0,0.05,15,0)" xlink:href="#bi"/><use transform="matrix(0.05,0,0,0.05,25,0)" xlink:href="#bs"/><use transform="matrix(0.05,0,0,0.05,34,0)" xlink:href="#bp"/><use transform="matrix(0.05,0,0,0.05,44,0)" xlink:href="#bb"/><use transform="matrix(0.05,0,0,0.05,54,0)" xlink:href="#bq"/></g><path fill="#fff" d="M54-142c48-35 137-8 131 61C196 18 31 33 14-55l32-4c7 23 22 37 52 37 35-1 51-22 54-58 4-55-73-65-99-34H22l8-134h141v27H59" id="bt"/><use transform="matrix(0.05,0,0,0.05,0,0)" xlink:href="#bt" id="z"/><g id="A"><use transform="matrix(0.05,0,0,0.05,0,0)" xlink:href="#bs"/><use transform="matrix(0.05,0,0,0.05,9,0)" xlink:href="#br"/><use transform="matrix(0.05,0,0,0.05,12.949999999999998,0)" xlink:href="#bi"/><use transform="matrix(0.05,0,0,0.05,22.95,0)" xlink:href="#bk"/><use transform="matrix(0.05,0,0,0.05,31.950000000000003,0)" xlink:href="#bk"/></g><path fill="#fff" d="M101-251c68 0 85 55 85 127S166 4 100 4C33 4 14-52 14-124c0-73 17-127 87-127zm-1 229c47 0 54-49 54-102s-4-102-53-102c-51 0-55 48-55 102 0 53 5 102 54 102" id="bu"/><g id="B"><use transform="matrix(0.05,0,0,0.05,0,0)" xlink:href="#bh"/><use transform="matrix(0.05,0,0,0.05,10,0)" xlink:href="#bg"/><use transform="matrix(0.05,0,0,0.05,15,0)" xlink:href="#bf"/><use transform="matrix(0.05,0,0,0.05,25,0)" xlink:href="#bg"/><use transform="matrix(0.05,0,0,0.05,30,0)" xlink:href="#bu"/></g><path fill="#fff" d="M206 0h-36l-40-164L89 0H53L-1-190h32L70-26l43-164h34l41 164 42-164h31" id="bv"/><g id="C"><use transform="matrix(0.05,0,0,0.05,0,0)" xlink:href="#bv"/><use transform="matrix(0.05,0,0,0.05,12.950000000000001,0)" xlink:href="#bi"/><use transform="matrix(0.05,0,0,0.05,22.950000000000003,0)" xlink:href="#bd"/><use transform="matrix(0.05,0,0,0.05,26.900000000000002,0)" xlink:href="#bq"/></g><path fill="#fff" d="M101-251c82-7 93 87 43 132L82-64C71-53 59-42 53-27h129V0H18c2-99 128-94 128-182 0-28-16-43-45-43s-46 15-49 41l-32-3c6-41 34-60 81-64" id="bw"/><g id="D"><use transform="matrix(0.05,0,0,0.05,0,0)" xlink:href="#bh"/><use transform="matrix(0.05,0,0,0.05,10,0)" xlink:href="#bg"/><use transform="matrix(0.05,0,0,0.05,15,0)" xlink:href="#bw"/></g><path fill="#fff" d="M115-194c55 1 70 41 70 98S169 2 115 4C84 4 66-9 55-30l1 105H24l-1-265h31l2 30c10-21 28-34 59-34zm-8 174c40 0 45-34 45-75s-6-73-45-74c-42 0-51 32-51 76 0 43 10 73 51 73" id="bx"/><g id="E"><use transform="matrix(0.05,0,0,0.05,0,0)" xlink:href="#bx"/><use transform="matrix(0.05,0,0,0.05,10,0)" xlink:href="#bq"/><use transform="matrix(0.05,0,0,0.05,15.949999999999998,0)" xlink:href="#bb"/><use transform="matrix(0.05,0,0,0.05,25.950000000000003,0)" xlink:href="#bk"/><use transform="matrix(0.05,0,0,0.05,34.95,0)" xlink:href="#bk"/></g><path fill="#fff" d="M115-194c53 0 69 39 70 98 0 66-23 100-70 100C84 3 66-7 56-30L54 0H23l1-261h32v101c10-23 28-34 59-34zm-8 174c40 0 45-34 45-75 0-40-5-75-45-74-42 0-51 32-51 76 0 43 10 73 51 73" id="by"/><path fill="#fff" d="M84 4C-5 8 30-112 23-190h32v120c0 31 7 50 39 49 72-2 45-101 50-169h31l1 190h-30c-1-10 1-25-2-33-11 22-28 36-60 37" id="bz"/><g id="F"><use transform="matrix(0.05,0,0,0.05,0,0)" xlink:href="#by"/><use transform="matrix(0.05,0,0,0.05,10,0)" xlink:href="#bz"/><use transform="matrix(0.05,0,0,0.05,20,0)" xlink:href="#be"/><use transform="matrix(0.05,0,0,0.05,25,0)" xlink:href="#be"/><use transform="matrix(0.05,0,0,0.05,30,0)" xlink:href="#bm"/><use transform="matrix(0.05,0,0,0.05,40,0)" xlink:href="#bo"/></g><g id="G"><use transform="matrix(0.05,0,0,0.05,0,0)" xlink:href="#bh"/><use transform="matrix(0.05,0,0,0.05,10,0)" xlink:href="#bg"/><use transform="matrix(0.05,0,0,0.05,15,0)" xlink:href="#bh"/></g><g id="H"><use transform="matrix(0.05,0,0,0.05,0,0)" xlink:href="#bp"/><use transform="matrix(0.05,0,0,0.05,10,0)" xlink:href="#bb"/><use transform="matrix(0.05,0,0,0.05,20,0)" xlink:href="#br"/><use transform="matrix(0.05,0,0,0.05,23.95,0)" xlink:href="#bx"/></g><g id="I"><use transform="matrix(0.05,0,0,0.05,0,0)" xlink:href="#bo"/><use transform="matrix(0.05,0,0,0.05,10,0)" xlink:href="#bi"/><use transform="matrix(0.05,0,0,0.05,20,0)" xlink:href="#bq"/><use transform="matrix(0.05,0,0,0.05,25.950000000000003,0)" xlink:href="#bq"/><use transform="matrix(0.05,0,0,0.05,31.899999999999995,0)" xlink:href="#bi"/><use transform="matrix(0.05,0,0,0.05,41.9,0)" xlink:href="#be"/><use transform="matrix(0.05,0,0,0.05,46.9,0)" xlink:href="#bm"/><use transform="matrix(0.05,0,0,0.05,56.900000000000006,0)" xlink:href="#bq"/></g><g id="J"><use transform="matrix(0.05,0,0,0.05,0,0)" xlink:href="#bh"/><use transform="matrix(0.05,0,0,0.05,10,0)" xlink:href="#bg"/><use transform="matrix(0.05,0,0,0.05,15,0)" xlink:href="#bl"/></g><g id="K"><use transform="matrix(0.05,0,0,0.05,0,0)" xlink:href="#bq"/><use transform="matrix(0.05,0,0,0.05,5.95,0)" xlink:href="#bz"/><use transform="matrix(0.05,0,0,0.05,15.949999999999998,0)" xlink:href="#bo"/></g><path fill="#fff" d="M87 75C49 33 22-17 22-94c0-76 28-126 65-167h31c-38 41-64 92-64 168S80 34 118 75H87" id="bA"/><g id="L"><use transform="matrix(0.05,0,0,0.05,0,0)" xlink:href="#bA"/><use transform="matrix(0.05,0,0,0.05,5.95,0)" xlink:href="#bv"/><use transform="matrix(0.05,0,0,0.05,18.900000000000002,0)" xlink:href="#bd"/><use transform="matrix(0.05,0,0,0.05,22.85,0)" xlink:href="#be"/><use transform="matrix(0.05,0,0,0.05,27.85,0)" xlink:href="#bp"/><use transform="matrix(0.05,0,0,0.05,37.85,0)" xlink:href="#bm"/><use transform="matrix(0.05,0,0,0.05,47.85,0)" xlink:href="#bz"/><use transform="matrix(0.05,0,0,0.05,57.85,0)" xlink:href="#be"/></g><path fill="#fff" d="M33-261c38 41 65 92 65 168S71 34 33 75H2C39 34 66-17 66-93S39-220 2-261h31" id="bB"/><g id="M"><use transform="matrix(0.05,0,0,0.05,0,0)" xlink:href="#bo"/><use transform="matrix(0.05,0,0,0.05,10,0)" xlink:href="#bi"/><use transform="matrix(0.05,0,0,0.05,20,0)" xlink:href="#bq"/><use transform="matrix(0.05,0,0,0.05,25.950000000000003,0)" xlink:href="#bq"/><use transform="matrix(0.05,0,0,0.05,31.899999999999995,0)" xlink:href="#bi"/><use transform="matrix(0.05,0,0,0.05,41.9,0)" xlink:href="#be"/><use transform="matrix(0.05,0,0,0.05,46.9,0)" xlink:href="#bm"/><use transform="matrix(0.05,0,0,0.05,56.900000000000006,0)" xlink:href="#bq"/><use transform="matrix(0.05,0,0,0.05,62.85,0)" xlink:href="#bB"/></g><g id="N"><use transform="matrix(0.05,0,0,0.05,0,0)" xlink:href="#bf"/><use transform="matrix(0.05,0,0,0.05,10,0)" xlink:href="#bg"/><use transform="matrix(0.05,0,0,0.05,15,0)" xlink:href="#bt"/><use transform="matrix(0.05,0,0,0.05,25,0)" xlink:href="#bg"/><use transform="matrix(0.05,0,0,0.05,30,0)" xlink:href="#bu"/></g><g id="O"><use transform="matrix(0.05,0,0,0.05,0,0)" xlink:href="#bk"/><use transform="matrix(0.05,0,0,0.05,9,0)" xlink:href="#bs"/><use transform="matrix(0.05,0,0,0.05,18,0)" xlink:href="#bp"/><use transform="matrix(0.05,0,0,0.05,28,0)" xlink:href="#bm"/><use transform="matrix(0.05,0,0,0.05,38,0)" xlink:href="#bm"/><use transform="matrix(0.05,0,0,0.05,48,0)" xlink:href="#br"/></g><g id="P"><use transform="matrix(0.05,0,0,0.05,0,0)" xlink:href="#bh"/><use transform="matrix(0.05,0,0,0.05,10,0)" xlink:href="#bg"/><use transform="matrix(0.05,0,0,0.05,15,0)" xlink:href="#bf"/><use transform="matrix(0.05,0,0,0.05,25,0)" xlink:href="#bg"/><use transform="matrix(0.05,0,0,0.05,30,0)" xlink:href="#bf"/></g><g id="Q"><use transform="matrix(0.05,0,0,0.05,0,0)" xlink:href="#bq"/><use transform="matrix(0.05,0,0,0.05,5.95,0)" xlink:href="#bb"/><use transform="matrix(0.05,0,0,0.05,15.949999999999998,0)" xlink:href="#bk"/><use transform="matrix(0.05,0,0,0.05,24.95,0)" xlink:href="#bb"/><use transform="matrix(0.05,0,0,0.05,34.95,0)" xlink:href="#be"/></g><g id="R"><use transform="matrix(0.05,0,0,0.05,0,0)" xlink:href="#bh"/><use transform="matrix(0.05,0,0,0.05,10,0)" xlink:href="#bg"/><use transform="matrix(0.05,0,0,0.05,15,0)" xlink:href="#bf"/><use transform="matrix(0.05,0,0,0.05,25,0)" xlink:href="#bg"/><use transform="matrix(0.05,0,0,0.05,30,0)" xlink:href="#bw"/></g><g id="S"><use transform="matrix(0.05,0,0,0.05,0,0)" xlink:href="#be"/><use transform="matrix(0.05,0,0,0.05,5,0)" xlink:href="#bq"/><use transform="matrix(0.05,0,0,0.05,10.95,0)" xlink:href="#bz"/><use transform="matrix(0.05,0,0,0.05,20.95,0)" xlink:href="#bk"/><use transform="matrix(0.05,0,0,0.05,29.950000000000003,0)" xlink:href="#be"/></g><g id="T"><use transform="matrix(0.05,0,0,0.05,0,0)" xlink:href="#bf"/><use transform="matrix(0.05,0,0,0.05,10,0)" xlink:href="#bg"/><use transform="matrix(0.05,0,0,0.05,15,0)" xlink:href="#bl"/></g><g id="U"><use transform="matrix(0.05,0,0,0.05,0,0)" xlink:href="#bb"/><use transform="matrix(0.05,0,0,0.05,10,0)" xlink:href="#bc"/><use transform="matrix(0.05,0,0,0.05,19,0)" xlink:href="#bx"/><use transform="matrix(0.05,0,0,0.05,29,0)" xlink:href="#br"/><use transform="matrix(0.05,0,0,0.05,32.95,0)" xlink:href="#bm"/><use transform="matrix(0.05,0,0,0.05,42.95,0)" xlink:href="#bq"/><use transform="matrix(0.05,0,0,0.05,48.900000000000006,0)" xlink:href="#bb"/></g><g id="V"><use transform="matrix(0.05,0,0,0.05,0,0)" xlink:href="#bm"/><use transform="matrix(0.05,0,0,0.05,10,0)" xlink:href="#bo"/></g><path fill="#fff" d="M179-190L93 31C79 59 56 82 12 73V49c39 6 53-20 64-50L1-190h34L92-34l54-156h33" id="bC"/><g id="W"><use transform="matrix(0.05,0,0,0.05,0,0)" xlink:href="#bC"/><use transform="matrix(0.05,0,0,0.05,9,0)" xlink:href="#bm"/><use transform="matrix(0.05,0,0,0.05,19,0)" xlink:href="#bz"/><use transform="matrix(0.05,0,0,0.05,29,0)" xlink:href="#bq"/></g><g id="X"><use transform="matrix(0.05,0,0,0.05,0,0)" xlink:href="#bm"/><use transform="matrix(0.05,0,0,0.05,10,0)" xlink:href="#bv"/><use transform="matrix(0.05,0,0,0.05,22.950000000000003,0)" xlink:href="#bo"/></g><g id="Y"><use transform="matrix(0.05,0,0,0.05,0,0)" xlink:href="#bf"/><use transform="matrix(0.05,0,0,0.05,10,0)" xlink:href="#bg"/><use transform="matrix(0.05,0,0,0.05,15,0)" xlink:href="#bh"/><use transform="matrix(0.05,0,0,0.05,25,0)" xlink:href="#bg"/><use transform="matrix(0.05,0,0,0.05,30,0)" xlink:href="#bu"/></g><path fill="#fff" d="M101-234c-31-9-42 10-38 44h38v23H63V0H32v-167H5v-23h27c-7-52 17-82 69-68v24" id="bD"/><path fill="#fff" d="M85-194c31 0 48 13 60 33l-1-100h32l1 261h-30c-2-10 0-23-3-31C134-8 116 4 85 4 32 4 16-35 15-94c0-66 23-100 70-100zm9 24c-40 0-46 34-46 75 0 40 6 74 45 74 42 0 51-32 51-76 0-42-9-74-50-73" id="bE"/><g id="Z"><use transform="matrix(0.05,0,0,0.05,0,0)" xlink:href="#bD"/><use transform="matrix(0.05,0,0,0.05,5,0)" xlink:href="#bd"/><use transform="matrix(0.05,0,0,0.05,8.95,0)" xlink:href="#bo"/><use transform="matrix(0.05,0,0,0.05,18.95,0)" xlink:href="#bE"/></g><g id="aa"><use transform="matrix(0.05,0,0,0.05,0,0)" xlink:href="#bf"/><use transform="matrix(0.05,0,0,0.05,10,0)" xlink:href="#bg"/><use transform="matrix(0.05,0,0,0.05,15,0)" xlink:href="#bt"/></g><g id="ab"><use transform="matrix(0.05,0,0,0.05,0,0)" xlink:href="#bD"/><use transform="matrix(0.05,0,0,0.05,5,0)" xlink:href="#bq"/><use transform="matrix(0.05,0,0,0.05,10.95,0)" xlink:href="#bb"/><use transform="matrix(0.05,0,0,0.05,20.95,0)" xlink:href="#bb"/></g><path fill="#fff" d="M110-160c48 1 74 30 74 79 0 53-28 85-80 85-65 0-83-55-86-122-5-90 50-162 133-122 14 7 22 21 27 39l-31 6c-5-40-67-38-82-6-9 19-15 44-15 74 11-20 30-34 60-33zm-7 138c34 0 49-23 49-58s-16-56-50-56c-29 0-50 16-49 49 1 36 15 65 50 65" id="bF"/><g id="ac"><use transform="matrix(0.05,0,0,0.05,0,0)" xlink:href="#bf"/><use transform="matrix(0.05,0,0,0.05,10,0)" xlink:href="#bg"/><use transform="matrix(0.05,0,0,0.05,15,0)" xlink:href="#bF"/></g><g id="ad"><use transform="matrix(0.05,0,0,0.05,0,0)" xlink:href="#bi"/><use transform="matrix(0.05,0,0,0.05,10,0)" xlink:href="#be"/><use transform="matrix(0.05,0,0,0.05,15,0)" xlink:href="#be"/><use transform="matrix(0.05,0,0,0.05,20,0)" xlink:href="#bi"/><use transform="matrix(0.05,0,0,0.05,30,0)" xlink:href="#bs"/><use transform="matrix(0.05,0,0,0.05,39,0)" xlink:href="#bj"/></g><g id="ae"><use transform="matrix(0.05,0,0,0.05,0,0)" xlink:href="#bh"/><use transform="matrix(0.05,0,0,0.05,10,0)" xlink:href="#bg"/><use transform="matrix(0.05,0,0,0.05,15,0)" xlink:href="#bt"/></g><g id="af"><use transform="matrix(0.05,0,0,0.05,0,0)" xlink:href="#bA"/><use transform="matrix(0.05,0,0,0.05,5.95,0)" xlink:href="#bv"/><use transform="matrix(0.05,0,0,0.05,18.900000000000002,0)" xlink:href="#bd"/><use transform="matrix(0.05,0,0,0.05,22.85,0)" xlink:href="#be"/><use transform="matrix(0.05,0,0,0.05,27.85,0)" xlink:href="#bp"/></g><g id="ag"><use transform="matrix(0.05,0,0,0.05,0,0)" xlink:href="#bo"/><use transform="matrix(0.05,0,0,0.05,10,0)" xlink:href="#bi"/><use transform="matrix(0.05,0,0,0.05,20,0)" xlink:href="#bq"/><use transform="matrix(0.05,0,0,0.05,25.950000000000003,0)" xlink:href="#bq"/><use transform="matrix(0.05,0,0,0.05,31.899999999999995,0)" xlink:href="#bi"/><use transform="matrix(0.05,0,0,0.05,41.9,0)" xlink:href="#be"/><use transform="matrix(0.05,0,0,0.05,46.9,0)" xlink:href="#bm"/><use transform="matrix(0.05,0,0,0.05,56.900000000000006,0)" xlink:href="#bq"/><use transform="matrix(0.05,0,0,0.05,62.85,0)" xlink:href="#bB"/></g><path fill="#fff" d="M64 0c3-98 48-159 88-221H18v-27h164v26C143-157 98-101 97 0H64" id="bG"/><g id="ah"><use transform="matrix(0.05,0,0,0.05,0,0)" xlink:href="#bf"/><use transform="matrix(0.05,0,0,0.05,10,0)" xlink:href="#bg"/><use transform="matrix(0.05,0,0,0.05,15,0)" xlink:href="#bG"/></g><g id="ai"><use transform="matrix(0.05,0,0,0.05,0,0)" xlink:href="#bp"/><use transform="matrix(0.05,0,0,0.05,10,0)" xlink:href="#bd"/><use transform="matrix(0.05,0,0,0.05,13.949999999999998,0)" xlink:href="#bE"/><use transform="matrix(0.05,0,0,0.05,23.95,0)" xlink:href="#bb"/></g><g id="aj"><use transform="matrix(0.05,0,0,0.05,0,0)" xlink:href="#bd"/><use transform="matrix(0.05,0,0,0.05,3.95,0)" xlink:href="#bo"/></g><g id="ak"><use transform="matrix(0.05,0,0,0.05,0,0)" xlink:href="#be"/><use transform="matrix(0.05,0,0,0.05,5,0)" xlink:href="#bm"/><use transform="matrix(0.05,0,0,0.05,15,0)" xlink:href="#bd"/><use transform="matrix(0.05,0,0,0.05,18.95,0)" xlink:href="#br"/><use transform="matrix(0.05,0,0,0.05,22.9,0)" xlink:href="#bb"/><use transform="matrix(0.05,0,0,0.05,32.9,0)" xlink:href="#be"/></g><g id="al"><use transform="matrix(0.05,0,0,0.05,0,0)" xlink:href="#bf"/><use transform="matrix(0.05,0,0,0.05,10,0)" xlink:href="#bg"/><use transform="matrix(0.05,0,0,0.05,15,0)" xlink:href="#bh"/><use transform="matrix(0.05,0,0,0.05,25,0)" xlink:href="#bg"/><use transform="matrix(0.05,0,0,0.05,30,0)" xlink:href="#bu"/><use transform="matrix(0.05,0,0,0.05,40,0)" xlink:href="#bg"/><use transform="matrix(0.05,0,0,0.05,45,0)" xlink:href="#bu"/></g><g id="am"><use transform="matrix(0.05,0,0,0.05,0,0)" xlink:href="#bf"/><use transform="matrix(0.05,0,0,0.05,10,0)" xlink:href="#bg"/><use transform="matrix(0.05,0,0,0.05,15,0)" xlink:href="#bh"/><use transform="matrix(0.05,0,0,0.05,25,0)" xlink:href="#bg"/><use transform="matrix(0.05,0,0,0.05,30,0)" xlink:href="#bl"/></g><path fill="#fff" d="M177-190C167-65 218 103 67 71c-23-6-38-20-44-43l32-5c15 47 100 32 89-28v-30C133-14 115 1 83 1 29 1 15-40 15-95c0-56 16-97 71-98 29-1 48 16 59 35 1-10 0-23 2-32h30zM94-22c36 0 50-32 50-73 0-42-14-75-50-75-39 0-46 34-46 75s6 73 46 73" id="bH"/><g id="an"><use transform="matrix(0.05,0,0,0.05,0,0)" xlink:href="#bH"/><use transform="matrix(0.05,0,0,0.05,10,0)" xlink:href="#bm"/></g><g id="ao"><use transform="matrix(0.05,0,0,0.05,0,0)" xlink:href="#br"/><use transform="matrix(0.05,0,0,0.05,3.95,0)" xlink:href="#bd"/><use transform="matrix(0.05,0,0,0.05,7.9,0)" xlink:href="#bH"/><use transform="matrix(0.05,0,0,0.05,17.9,0)" xlink:href="#bp"/><use transform="matrix(0.05,0,0,0.05,27.899999999999995,0)" xlink:href="#be"/></g><g id="ap"><use transform="matrix(0.05,0,0,0.05,0,0)" xlink:href="#bk"/><use transform="matrix(0.05,0,0,0.05,9,0)" xlink:href="#bi"/><use transform="matrix(0.05,0,0,0.05,19,0)" xlink:href="#by"/><use transform="matrix(0.05,0,0,0.05,29,0)" xlink:href="#bb"/><use transform="matrix(0.05,0,0,0.05,39,0)" xlink:href="#bq"/></g><g id="aq"><use transform="matrix(0.05,0,0,0.05,0,0)" xlink:href="#bf"/><use transform="matrix(0.05,0,0,0.05,10,0)" xlink:href="#bg"/><use transform="matrix(0.05,0,0,0.05,15,0)" xlink:href="#bh"/><use transform="matrix(0.05,0,0,0.05,25,0)" xlink:href="#bg"/><use transform="matrix(0.05,0,0,0.05,30,0)" xlink:href="#bf"/></g><g id="ar"><use transform="matrix(0.05,0,0,0.05,0,0)" xlink:href="#bq"/><use transform="matrix(0.05,0,0,0.05,5.95,0)" xlink:href="#bd"/><use transform="matrix(0.05,0,0,0.05,9.9,0)" xlink:href="#bH"/><use transform="matrix(0.05,0,0,0.05,19.9,0)" xlink:href="#bd"/><use transform="matrix(0.05,0,0,0.05,23.849999999999998,0)" xlink:href="#bk"/><use transform="matrix(0.05,0,0,0.05,32.849999999999994,0)" xlink:href="#be"/><use transform="matrix(0.05,0,0,0.05,37.849999999999994,0)" xlink:href="#bb"/><use transform="matrix(0.05,0,0,0.05,47.849999999999994,0)" xlink:href="#bq"/></g><g id="as"><use transform="matrix(0.05,0,0,0.05,0,0)" xlink:href="#bi"/><use transform="matrix(0.05,0,0,0.05,10,0)" xlink:href="#be"/></g><use transform="matrix(0.05,0,0,0.05,0,0)" xlink:href="#bF" id="at"/><path fill="#fff" d="M108 0H70L1-190h34L89-25l56-165h34" id="bI"/><g id="au"><use transform="matrix(0.05,0,0,0.05,0,0)" xlink:href="#br"/><use transform="matrix(0.05,0,0,0.05,3.95,0)" xlink:href="#bb"/><use transform="matrix(0.05,0,0,0.05,13.949999999999998,0)" xlink:href="#bi"/><use transform="matrix(0.05,0,0,0.05,23.95,0)" xlink:href="#bI"/><use transform="matrix(0.05,0,0,0.05,32.95,0)" xlink:href="#bb"/></g><use transform="matrix(0.05,0,0,0.05,0,0)" xlink:href="#bG" id="av"/><g id="aw"><use transform="matrix(0.05,0,0,0.05,0,0)" xlink:href="#bD"/><use transform="matrix(0.05,0,0,0.05,5,0)" xlink:href="#bi"/><use transform="matrix(0.05,0,0,0.05,15,0)" xlink:href="#bd"/><use transform="matrix(0.05,0,0,0.05,18.95,0)" xlink:href="#br"/></g><g id="ax"><use transform="matrix(0.05,0,0,0.05,0,0)" xlink:href="#bi"/><use transform="matrix(0.05,0,0,0.05,10,0)" xlink:href="#bo"/><use transform="matrix(0.05,0,0,0.05,20,0)" xlink:href="#bE"/></g><g id="ay"><use transform="matrix(0.05,0,0,0.05,0,0)" xlink:href="#bq"/><use transform="matrix(0.05,0,0,0.05,5.95,0)" xlink:href="#bb"/><use transform="matrix(0.05,0,0,0.05,15.949999999999998,0)" xlink:href="#bk"/><use transform="matrix(0.05,0,0,0.05,24.95,0)" xlink:href="#bb"/><use transform="matrix(0.05,0,0,0.05,34.95,0)" xlink:href="#be"/></g><g id="az"><use transform="matrix(0.05,0,0,0.05,0,0)" xlink:href="#bh"/><use transform="matrix(0.05,0,0,0.05,10,0)" xlink:href="#bg"/><use transform="matrix(0.05,0,0,0.05,15,0)" xlink:href="#bF"/></g><g id="aA"><use transform="matrix(0.05,0,0,0.05,0,0)" xlink:href="#bk"/><use transform="matrix(0.05,0,0,0.05,9,0)" xlink:href="#bz"/><use transform="matrix(0.05,0,0,0.05,19,0)" xlink:href="#bs"/><use transform="matrix(0.05,0,0,0.05,28,0)" xlink:href="#bk"/><use transform="matrix(0.05,0,0,0.05,37,0)" xlink:href="#bb"/><use transform="matrix(0.05,0,0,0.05,47,0)" xlink:href="#bk"/><use transform="matrix(0.05,0,0,0.05,56,0)" xlink:href="#bk"/></g><g id="aB"><use transform="matrix(0.05,0,0,0.05,0,0)" xlink:href="#bA"/><use transform="matrix(0.05,0,0,0.05,5.95,0)" xlink:href="#bo"/><use transform="matrix(0.05,0,0,0.05,15.949999999999998,0)" xlink:href="#bb"/><use transform="matrix(0.05,0,0,0.05,25.950000000000003,0)" xlink:href="#bb"/><use transform="matrix(0.05,0,0,0.05,35.95,0)" xlink:href="#bE"/></g><g id="aC"><use transform="matrix(0.05,0,0,0.05,0,0)" xlink:href="#bv"/><use transform="matrix(0.05,0,0,0.05,12.950000000000001,0)" xlink:href="#bb"/><use transform="matrix(0.05,0,0,0.05,22.950000000000003,0)" xlink:href="#bi"/><use transform="matrix(0.05,0,0,0.05,32.95,0)" xlink:href="#bx"/><use transform="matrix(0.05,0,0,0.05,42.95,0)" xlink:href="#bm"/><use transform="matrix(0.05,0,0,0.05,52.95,0)" xlink:href="#bo"/><use transform="matrix(0.05,0,0,0.05,62.95,0)" xlink:href="#bB"/></g><g id="aD"><use transform="matrix(0.05,0,0,0.05,0,0)" xlink:href="#bh"/><use transform="matrix(0.05,0,0,0.05,10,0)" xlink:href="#bg"/><use transform="matrix(0.05,0,0,0.05,15,0)" xlink:href="#bt"/><use transform="matrix(0.05,0,0,0.05,25,0)" xlink:href="#bg"/><use transform="matrix(0.05,0,0,0.05,30,0)" xlink:href="#bu"/></g></defs></g></svg>