<svg xmlns="http://www.w3.org/2000/svg" xmlns:xlink="http://www.w3.org/1999/xlink" xmlns:lucid="lucid" width="4679.05" height="1312.89"><g transform="translate(0 0)" lucid:page-tab-id="0_0"><path d="M317.58 699.8l427.5-193.06" stroke="#333" fill="none"/><path d="M317.8 700.25l-.67.3v-1.1l.26-.12z" stroke="#333" stroke-width=".05" fill="#333"/><path d="M758.52 500.67l-11.1 10.1-3.8-8.46z" stroke="#333" fill="#333"/><path d="M317.6 700.12l1049.35 256" stroke="#333" fill="none"/><path d="M317.75 699.64l-.24.97-.37-.1v-1z" stroke="#333" stroke-width=".05" fill="#333"/><path d="M1381.3 959.62l-14.96 1.12 2.2-9z" stroke="#333" fill="#333"/><path d="M100 648a8 8 0 0 1 8-8h201.13a8 8 0 0 1 8 8v104a8 8 0 0 1-8 8H108a8 8 0 0 1-8-8z" stroke="#000" stroke-opacity="0" fill="#3278ca"/><use xlink:href="#a" transform="matrix(1,0,0,1,104.8,644.8) translate(36.42500000000001 60.7)"/><use xlink:href="#b" transform="matrix(1,0,0,1,104.8,644.8) translate(74.97500000000001 60.7)"/><use xlink:href="#c" transform="matrix(1,0,0,1,104.8,644.8) translate(161.575 60.7)"/><path d="M760 448a8 8 0 0 1 8-8h201.13a8 8 0 0 1 8 8v104a8 8 0 0 1-8 8H768a8 8 0 0 1-8-8z" stroke="#000" stroke-opacity="0" fill="#54c45e"/><use xlink:href="#d" transform="matrix(1,0,0,1,764.8,444.8) translate(59.05000000000001 60.7)"/><use xlink:href="#e" transform="matrix(1,0,0,1,764.8,444.8) translate(84.05000000000001 60.7)"/><use xlink:href="#f" transform="matrix(1,0,0,1,764.8,444.8) translate(123.95 60.7)"/><path d="M1382.87 908a8 8 0 0 1 8-8H1592a8 8 0 0 1 8 8v104a8 8 0 0 1-8 8h-201.13a8 8 0 0 1-8-8z" stroke="#000" stroke-opacity="0" fill="#54c45e"/><use xlink:href="#g" transform="matrix(1,0,0,1,1387.672208,904.8) translate(35.05000000000001 60.7)"/><use xlink:href="#h" transform="matrix(1,0,0,1,1387.672208,904.8) translate(60.05000000000001 60.7)"/><use xlink:href="#i" transform="matrix(1,0,0,1,1387.672208,904.8) translate(85.05000000000001 60.7)"/><use xlink:href="#j" transform="matrix(1,0,0,1,1387.672208,904.8) translate(115.05000000000001 60.7)"/><use xlink:href="#k" transform="matrix(1,0,0,1,1387.672208,904.8) translate(162.95 60.7)"/><path d="M520 628a8 8 0 0 1 8-8h201.13a8 8 0 0 1 8 8v104a8 8 0 0 1-8 8H528a8 8 0 0 1-8-8z" stroke="#000" stroke-opacity="0" fill="#54c45e"/><use xlink:href="#l" transform="matrix(1,0,0,1,524.8,624.8) translate(25.100000000000005 49.9)"/><use xlink:href="#m" transform="matrix(1,0,0,1,524.8,624.8) translate(63.10000000000001 49.9)"/><use xlink:href="#n" transform="matrix(1,0,0,1,524.8,624.8) translate(128 49.9)"/><use xlink:href="#o" transform="matrix(1,0,0,1,524.8,624.8) translate(91.50000000000001 71.5)"/><path d="M317.63 699.95L503.7 681.6" stroke="#333" fill="none"/><path d="M317.7 700.45l-.57.05v-1l.46-.05z" stroke="#333" stroke-width=".05" fill="#333"/><path d="M518.4 680.16l-13.75 6-.9-9.2z" stroke="#333" fill="#333"/><path d="M280 203.5a8 8 0 0 1 8-8h836.75a8 8 0 0 1 8 8v25.16a8 8 0 0 1-8 8H288a8 8 0 0 1-8-8z" stroke="#000" stroke-opacity="0" stroke-width="2" fill="#fff" fill-opacity="0"/><use xlink:href="#p" transform="matrix(1,0,0,1,284,199.4999999997673) translate(322.85135802469136 23.657777777777778)"/><use xlink:href="#q" transform="matrix(1,0,0,1,284,199.4999999997673) translate(376.6069135802469 23.657777777777778)"/><use xlink:href="#r" transform="matrix(1,0,0,1,284,199.4999999997673) translate(434.15012345679014 23.657777777777778)"/><path d="M536.87 235.3h346.8M536.9 235.3h-1.03M883.64 235.3h1.02" stroke="#a9afb8" stroke-width="2" fill="none"/><path d="M280 244.66a8 8 0 0 1 8-8h837.7a8 8 0 0 1 8 8v2.84a8 8 0 0 1-8 8H288a8 8 0 0 1-8-8z" stroke="#000" stroke-opacity="0" stroke-width="2" fill="#fff" fill-opacity="0"/><use xlink:href="#s" transform="matrix(1,0,0,1,284.00000000000045,240.655223956666) translate(336.8904012345679 14.917037037037037)"/><use xlink:href="#t" transform="matrix(1,0,0,1,284.00000000000045,240.655223956666) translate(371.68947530864193 14.917037037037037)"/><use xlink:href="#u" transform="matrix(1,0,0,1,284.00000000000045,240.655223956666) translate(406.4035699588477 14.917037037037037)"/><use xlink:href="#v" transform="matrix(1,0,0,1,284.00000000000045,240.655223956666) translate(418.85305555555556 14.917037037037037)"/><use xlink:href="#w" transform="matrix(1,0,0,1,284.00000000000045,240.655223956666) translate(456.24400205761316 14.917037037037037)"/><use xlink:href="#x" transform="matrix(1,0,0,1,284.00000000000045,240.655223956666) translate(481.737829218107 14.917037037037037)"/><path d="M737.6 680.2l630.24 273.28" stroke="#333" fill="none"/><path d="M737.8 679.75l-.4.9-.27-.1v-1.1z" stroke="#333" stroke-width=".05" fill="#333"/><path d="M1381.4 959.36l-14.95-1.43 3.7-8.5z" stroke="#333" fill="#333"/><path d="M737.2 679.5l20.73-163.25" stroke="#333" fill="none"/><path d="M737.7 679.55l-.45 3.5-.12-.03v-3.54z" stroke="#333" stroke-width=".05" fill="#333"/><path d="M759.8 501.6l2.8 14.74-9.2-1.17z" stroke="#333" fill="#333"/><path d="M1702.87 768a8 8 0 0 1 8-8H1912a8 8 0 0 1 8 8v104a8 8 0 0 1-8 8h-201.13a8 8 0 0 1-8-8z" stroke="#000" stroke-opacity="0" fill="#54c45e"/><use xlink:href="#y" transform="matrix(1,0,0,1,1707.6722080000002,764.8) translate(36.05 60.7)"/><use xlink:href="#z" transform="matrix(1,0,0,1,1707.6722080000002,764.8) translate(82 60.7)"/><use xlink:href="#A" transform="matrix(1,0,0,1,1707.6722080000002,764.8) translate(146.95 60.7)"/><path d="M1702.87 968a8 8 0 0 1 8-8H1912a8 8 0 0 1 8 8v104a8 8 0 0 1-8 8h-201.13a8 8 0 0 1-8-8z" stroke="#000" stroke-opacity="0" fill="#54c45e"/><use xlink:href="#B" transform="matrix(1,0,0,1,1707.6722080000002,964.8) translate(39.075 60.7)"/><use xlink:href="#z" transform="matrix(1,0,0,1,1707.6722080000002,964.8) translate(93.97500000000001 60.7)"/><use xlink:href="#C" transform="matrix(1,0,0,1,1707.6722080000002,964.8) translate(158.925 60.7)"/><path d="M2302.87 808a8 8 0 0 1 8-8H2512a8 8 0 0 1 8 8v104a8 8 0 0 1-8 8h-201.13a8 8 0 0 1-8-8z" stroke="#000" stroke-opacity="0" fill="#54c45e"/><use xlink:href="#D" transform="matrix(1,0,0,1,2307.6722080000004,804.8) translate(53.05 60.7)"/><use xlink:href="#E" transform="matrix(1,0,0,1,2307.6722080000004,804.8) translate(99 60.7)"/><use xlink:href="#F" transform="matrix(1,0,0,1,2307.6722080000004,804.8) translate(144.95000000000002 60.7)"/><path d="M1600.3 959.6l92.87-126.4" stroke="#333" fill="none"/><path d="M1600.7 959.88l-.7.96v-1.48z" stroke="#333" stroke-width=".05" fill="#333"/><path d="M1701.9 821.3l-4.7 14.25-7.47-5.5z" stroke="#333" fill="#333"/><path d="M1600.43 960.25l88.3 51.5" stroke="#333" fill="none"/><path d="M1600.7 959.83l-.5.86-.2-.12v-1.16z" stroke="#333" stroke-width=".05" fill="#333"/><path d="M1701.47 1019.18l-14.65-3.18 4.67-8z" stroke="#333" fill="#333"/><path d="M1920.5 820.06l366.1 41" stroke="#333" fill="none"/><path d="M1920.57 819.56l-.12 1-.45-.06v-1z" stroke="#333" stroke-width=".05" fill="#333"/><path d="M2301.26 862.7l-14.7 3 1.04-9.2z" stroke="#333" fill="#333"/><path d="M1082.87 488a8 8 0 0 1 8-8H1292a8 8 0 0 1 8 8v104a8 8 0 0 1-8 8h-201.13a8 8 0 0 1-8-8z" stroke="#000" stroke-opacity="0" fill="#54c45e"/><use xlink:href="#D" transform="matrix(1,0,0,1,1087.672208,484.8) translate(26.100000000000005 49.9)"/><use xlink:href="#G" transform="matrix(1,0,0,1,1087.672208,484.8) translate(72.05000000000001 49.9)"/><use xlink:href="#H" transform="matrix(1,0,0,1,1087.672208,484.8) translate(131.9 49.9)"/><use xlink:href="#I" transform="matrix(1,0,0,1,1087.672208,484.8) translate(63.525000000000006 71.5)"/><use xlink:href="#J" transform="matrix(1,0,0,1,1087.672208,484.8) translate(104.47500000000001 71.5)"/><path d="M977.6 500.18l89.95 34.02" stroke="#333" fill="none"/><path d="M977.78 499.7l-.35.95-.3-.1v-1.1z" stroke="#333" stroke-width=".05" fill="#333"/><path d="M1081.36 539.43l-14.98-.7 3.28-8.7z" stroke="#333" fill="#333"/><path d="M977.46 500.38l394.57 447.33" stroke="#333" fill="none"/><path d="M977.84 500.05l-.7.63v-1.44z" stroke="#333" stroke-width=".05" fill="#333"/><path d="M1381.8 958.8l-12.9-7.65 6.94-6.13z" stroke="#333" fill="#333"/><path d="M1382.87 348a8 8 0 0 1 8-8H1592a8 8 0 0 1 8 8v104a8 8 0 0 1-8 8h-201.13a8 8 0 0 1-8-8z" stroke="#000" stroke-opacity="0" fill="#54c45e"/><use xlink:href="#d" transform="matrix(1,0,0,1,1387.672208,344.8) translate(22.600000000000005 49.9)"/><use xlink:href="#K" transform="matrix(1,0,0,1,1387.672208,344.8) translate(47.60000000000001 49.9)"/><use xlink:href="#L" transform="matrix(1,0,0,1,1387.672208,344.8) translate(95.55000000000001 49.9)"/><use xlink:href="#M" transform="matrix(1,0,0,1,1387.672208,344.8) translate(125.55000000000001 49.9)"/><use xlink:href="#N" transform="matrix(1,0,0,1,1387.672208,344.8) translate(91.50000000000001 71.5)"/><path d="M977.6 499.88l389.36-95.96" stroke="#333" fill="none"/><path d="M977.75 500.36l-.62.15v-1l.38-.1z" stroke="#333" stroke-width=".05" fill="#333"/><path d="M1381.3 400.4l-12.74 7.9-2.22-9z" stroke="#333" fill="#333"/><path d="M1300.26 539.57l74.27-125.47" stroke="#333" fill="none"/><path d="M1300.7 539.8l-.7 1.18v-1.58z" stroke="#333" stroke-width=".05" fill="#333"/><path d="M1382.05 401.4l-3.28 14.63-7.98-4.72z" stroke="#333" fill="#333"/><path d="M1300.1 540.5l79.6 403.43" stroke="#333" fill="none"/><path d="M1300.6 540.4l-.6.12v-3.1z" stroke="#333" stroke-width=".05" fill="#333"/><path d="M1382.56 958.4l-7.3-13.1 9.1-1.78z" stroke="#333" fill="#333"/><path d="M2022.87 708a8 8 0 0 1 8-8H2232a8 8 0 0 1 8 8v104a8 8 0 0 1-8 8h-201.13a8 8 0 0 1-8-8z" stroke="#000" stroke-opacity="0" fill="#54c45e"/><use xlink:href="#O" transform="matrix(1,0,0,1,2027.6722080000002,704.8) translate(25.300000000000008 60.7)"/><use xlink:href="#P" transform="matrix(1,0,0,1,2027.6722080000002,704.8) translate(76.15 60.7)"/><use xlink:href="#Q" transform="matrix(1,0,0,1,2027.6722080000002,704.8) translate(110.10000000000001 60.7)"/><use xlink:href="#R" transform="matrix(1,0,0,1,2027.6722080000002,704.8) translate(157.7 60.7)"/><path d="M1920.43 819.75l88.3-51.5" stroke="#333" fill="none"/><path d="M1920.7 820.17l-.7.4v-1.15l.2-.1z" stroke="#333" stroke-width=".05" fill="#333"/><path d="M2021.47 760.82l-9.98 11.2-4.68-8.02z" stroke="#333" fill="#333"/><path d="M2240.27 760.42l53.88 85.7" stroke="#333" fill="none"/><path d="M2240.7 760.17l-.7.44v-1.54z" stroke="#333" stroke-width=".05" fill="#333"/><path d="M2302 858.63l-11.5-9.6 7.84-4.94z" stroke="#333" fill="#333"/><path d="M2022.87 1008a8 8 0 0 1 8-8H2232a8 8 0 0 1 8 8v104a8 8 0 0 1-8 8h-201.13a8 8 0 0 1-8-8z" stroke="#000" stroke-opacity="0" fill="#54c45e"/><use xlink:href="#g" transform="matrix(1,0,0,1,2027.6722080000002,1004.8) translate(40.575 60.7)"/><use xlink:href="#P" transform="matrix(1,0,0,1,2027.6722080000002,1004.8) translate(65.575 60.7)"/><use xlink:href="#S" transform="matrix(1,0,0,1,2027.6722080000002,1004.8) translate(99.525 60.7)"/><use xlink:href="#T" transform="matrix(1,0,0,1,2027.6722080000002,1004.8) translate(142.425 60.7)"/><path d="M1920.46 1020.2l87.3 36.37" stroke="#333" fill="none"/><path d="M1920.67 1019.74l-.4.92-.27-.12v-1.08z" stroke="#333" stroke-width=".05" fill="#333"/><path d="M2021.38 1062.25l-14.95-1.2 3.56-8.57z" stroke="#333" fill="#333"/><path d="M2240.16 1059.53l57.4-166.9" stroke="#333" fill="none"/><path d="M2240.64 1059.68l-.64 1.86v-2.08z" stroke="#333" stroke-width=".05" fill="#333"/><path d="M2302.35 878.66l-.26 15-8.78-3.02z" stroke="#333" fill="#333"/><path d="M1920.46 1019.8l367.3-153.48" stroke="#333" fill="none"/><path d="M1920.67 1020.26l-.67.28v-1.08l.28-.12z" stroke="#333" stroke-width=".05" fill="#333"/><path d="M2301.38 860.62L2290 870.4l-3.57-8.55z" stroke="#333" fill="#333"/><path d="M2302.87 618a8 8 0 0 1 8-8H2512a8 8 0 0 1 8 8v104a8 8 0 0 1-8 8h-201.13a8 8 0 0 1-8-8z" stroke="#000" stroke-opacity="0" fill="#54c45e"/><use xlink:href="#U" transform="matrix(1,0,0,1,2307.6722080000004,614.8) translate(45.7 60.7)"/><use xlink:href="#V" transform="matrix(1,0,0,1,2307.6722080000004,614.8) translate(83.65 60.7)"/><use xlink:href="#W" transform="matrix(1,0,0,1,2307.6722080000004,614.8) translate(137.3 60.7)"/><path d="M2240.3 759.6l53.2-76.17" stroke="#333" fill="none"/><path d="M2240.7 759.87l-.7 1v-1.5z" stroke="#333" stroke-width=".05" fill="#333"/><path d="M2301.95 671.33l-4.37 14.35-7.6-5.3z" stroke="#333" fill="#333"/><path d="M2625.74 528a8 8 0 0 1 8-8h201.13a8 8 0 0 1 8 8v104a8 8 0 0 1-8 8h-201.13a8 8 0 0 1-8-8z" stroke="#000" stroke-opacity="0" fill="#ff8f8f"/><use xlink:href="#X" transform="matrix(1,0,0,1,2630.544416,524.8) translate(20.075 39.1)"/><use xlink:href="#Y" transform="matrix(1,0,0,1,2630.544416,524.8) translate(56.97500000000001 39.1)"/><use xlink:href="#Z" transform="matrix(1,0,0,1,2630.544416,524.8) translate(97.92500000000001 39.1)"/><use xlink:href="#aa" transform="matrix(1,0,0,1,2630.544416,524.8) translate(117.92500000000001 39.1)"/><use xlink:href="#ab" transform="matrix(1,0,0,1,2630.544416,524.8) translate(157.925 39.1)"/><use xlink:href="#ac" transform="matrix(1,0,0,1,2630.544416,524.8) translate(32.7 60.699999999999996)"/><use xlink:href="#ad" transform="matrix(1,0,0,1,2630.544416,524.8) translate(62.5 60.699999999999996)"/><use xlink:href="#ae" transform="matrix(1,0,0,1,2630.544416,524.8) translate(111.4 60.699999999999996)"/><use xlink:href="#af" transform="matrix(1,0,0,1,2630.544416,524.8) translate(130.35000000000002 60.699999999999996)"/><use xlink:href="#ag" transform="matrix(1,0,0,1,2630.544416,524.8) translate(58.55 82.30000000000001)"/><use xlink:href="#ah" transform="matrix(1,0,0,1,2630.544416,524.8) translate(109.45000000000002 82.30000000000001)"/><path d="M2625.74 348a8 8 0 0 1 8-8h201.13a8 8 0 0 1 8 8v104a8 8 0 0 1-8 8h-201.13a8 8 0 0 1-8-8z" stroke="#000" stroke-opacity="0" fill="#635dff"/><use xlink:href="#ai" transform="matrix(1,0,0,1,2630.544416,344.8) translate(75.025 60.7)"/><use xlink:href="#aj" transform="matrix(1,0,0,1,2630.544416,344.8) translate(107.97500000000001 60.7)"/><path d="M2520.38 669.68l92.9-79.06" stroke="#333" fill="none"/><path d="M2520.72 670.05l-.72.6v-1.3l.07-.06z" stroke="#333" stroke-width=".05" fill="#333"/><path d="M2624.5 581.05l-7.85 12.78-6-7.07z" stroke="#333" fill="#333"/><path d="M2520.18 669.53l99.6-254.27" stroke="#333" fill="none"/><path d="M2520.65 669.7l-.65 1.67v-1.92z" stroke="#333" stroke-width=".05" fill="#333"/><path d="M2625.15 401.5l-.88 14.98-8.63-3.38z" stroke="#333" fill="#333"/><path d="M1702.87 568a8 8 0 0 1 8-8H1912a8 8 0 0 1 8 8v104a8 8 0 0 1-8 8h-201.13a8 8 0 0 1-8-8z" stroke="#000" stroke-opacity="0" fill="#54c45e"/><g><use xlink:href="#y" transform="matrix(1,0,0,1,1707.6722080000002,564.8) translate(28.549999999999994 60.7)"/><use xlink:href="#z" transform="matrix(1,0,0,1,1707.6722080000002,564.8) translate(74.5 60.7)"/><use xlink:href="#ak" transform="matrix(1,0,0,1,1707.6722080000002,564.8) translate(139.45 60.7)"/></g><path d="M1702.87 368a8 8 0 0 1 8-8H1912a8 8 0 0 1 8 8v104a8 8 0 0 1-8 8h-201.13a8 8 0 0 1-8-8z" stroke="#000" stroke-opacity="0" fill="#54c45e"/><g><use xlink:href="#D" transform="matrix(1,0,0,1,1707.6722080000002,364.8) translate(23.575 60.7)"/><use xlink:href="#I" transform="matrix(1,0,0,1,1707.6722080000002,364.8) translate(69.525 60.7)"/><use xlink:href="#al" transform="matrix(1,0,0,1,1707.6722080000002,364.8) translate(110.47500000000001 60.7)"/><use xlink:href="#am" transform="matrix(1,0,0,1,1707.6722080000002,364.8) translate(130.47500000000002 60.7)"/><use xlink:href="#an" transform="matrix(1,0,0,1,1707.6722080000002,364.8) translate(159.425 60.7)"/></g><path d="M1600.2 400.45l95.73 204.7M1600.22 400.46l-.22-.46" stroke="#333" fill="none"/><path d="M1702.2 618.53l-10.26-10.95 8.4-3.93z" stroke="#333" fill="#333"/><path d="M1600.5 400.1l86.3 16.77M1600.5 400.1l-.5-.1" stroke="#333" fill="none"/><path d="M1701.28 419.7l-14.88 1.82 1.76-9.1z" stroke="#333" fill="#333"/><path d="M1920.3 620.4l92.87 126.4" stroke="#333" fill="none"/><path d="M1920.7 620.12l-.7.52v-1.48z" stroke="#333" stroke-width=".05" fill="#333"/><path d="M2021.9 758.7l-12.17-8.75 7.47-5.5z" stroke="#333" fill="#333"/><path d="M2022.87 528a8 8 0 0 1 8-8H2232a8 8 0 0 1 8 8v104a8 8 0 0 1-8 8h-201.13a8 8 0 0 1-8-8z" stroke="#000" stroke-opacity="0" fill="#54c45e"/><g><use xlink:href="#ao" transform="matrix(1,0,0,1,2027.6722080000002,524.8) translate(60.025000000000006 60.7)"/><use xlink:href="#ap" transform="matrix(1,0,0,1,2027.6722080000002,524.8) translate(107.97500000000001 60.7)"/></g><path d="M1920.48 606.3l86.52-22.22" stroke="#333" fill="none"/><path d="M1920.62 606.8l-.62.15v-1.04l.37-.08z" stroke="#333" stroke-width=".05" fill="#333"/><path d="M2021.3 580.4l-12.66 8.04-2.3-8.98z" stroke="#333" fill="#333"/><path d="M2302.87 428a8 8 0 0 1 8-8H2512a8 8 0 0 1 8 8v104a8 8 0 0 1-8 8h-201.13a8 8 0 0 1-8-8z" stroke="#000" stroke-opacity="0" fill="#ff8f8f"/><g><use xlink:href="#aq" transform="matrix(1,0,0,1,2307.6722080000004,424.8) translate(61.525000000000006 60.7)"/><use xlink:href="#ar" transform="matrix(1,0,0,1,2307.6722080000004,424.8) translate(106.47500000000001 60.7)"/></g><path d="M2240.27 579.58l53.88-85.7" stroke="#333" fill="none"/><path d="M2240.7 579.83l-.7 1.1v-1.54z" stroke="#333" stroke-width=".05" fill="#333"/><path d="M2302 481.37l-3.66 14.54-7.85-4.92z" stroke="#333" fill="#333"/><path d="M1920.27 420.42l93.74 145.8" stroke="#333" fill="none"/><path d="M1920.7 420.16l-.7.45v-1.53z" stroke="#333" stroke-width=".05" fill="#333"/><path d="M2022 578.64l-11.62-9.5 7.8-5z" stroke="#333" fill="#333"/><path d="M2885.74 588a8 8 0 0 1 8-8h201.13a8 8 0 0 1 8 8v104a8 8 0 0 1-8 8h-201.13a8 8 0 0 1-8-8z" stroke="#000" stroke-opacity="0" fill="#635dff"/><g><use xlink:href="#as" transform="matrix(1,0,0,1,2890.5444661164033,584.8) translate(50 60.7)"/><use xlink:href="#at" transform="matrix(1,0,0,1,2890.5444661164033,584.8) translate(89 60.7)"/><use xlink:href="#au" transform="matrix(1,0,0,1,2890.5444661164033,584.8) translate(104 60.7)"/><use xlink:href="#av" transform="matrix(1,0,0,1,2890.5444661164033,584.8) translate(148 60.7)"/></g><path d="M2625.74 808a8 8 0 0 1 8-8h201.13a8 8 0 0 1 8 8v104a8 8 0 0 1-8 8h-201.13a8 8 0 0 1-8-8z" stroke="#000" stroke-opacity="0" fill="#54c45e"/><g><use xlink:href="#aw" transform="matrix(1,0,0,1,2630.544416,804.8) translate(25.049999999999994 49.9)"/><use xlink:href="#ax" transform="matrix(1,0,0,1,2630.544416,804.8) translate(69.05 49.9)"/><use xlink:href="#ay" transform="matrix(1,0,0,1,2630.544416,804.8) translate(142 49.9)"/><use xlink:href="#m" transform="matrix(1,0,0,1,2630.544416,804.8) translate(29.100000000000005 71.5)"/><use xlink:href="#az" transform="matrix(1,0,0,1,2630.544416,804.8) translate(94.00000000000001 71.5)"/><use xlink:href="#aA" transform="matrix(1,0,0,1,2630.544416,804.8) translate(153.9 71.5)"/></g><path d="M2885.74 1028a8 8 0 0 1 8-8h201.13a8 8 0 0 1 8 8v104a8 8 0 0 1-8 8h-201.13a8 8 0 0 1-8-8z" stroke="#000" stroke-opacity="0" fill="#635dff"/><g><use xlink:href="#aB" transform="matrix(1,0,0,1,2890.5444661164033,1024.8) translate(16.550000000000008 49.9)"/><use xlink:href="#aC" transform="matrix(1,0,0,1,2890.5444661164033,1024.8) translate(49.55000000000001 49.9)"/><use xlink:href="#al" transform="matrix(1,0,0,1,2890.5444661164033,1024.8) translate(128.5 49.9)"/><use xlink:href="#aD" transform="matrix(1,0,0,1,2890.5444661164033,1024.8) translate(148.5 49.9)"/><use xlink:href="#aE" transform="matrix(1,0,0,1,2890.5444661164033,1024.8) translate(171.45 49.9)"/><use xlink:href="#aF" transform="matrix(1,0,0,1,2890.5444661164033,1024.8) translate(49.025000000000006 71.5)"/><use xlink:href="#aG" transform="matrix(1,0,0,1,2890.5444661164033,1024.8) translate(94.97500000000001 71.5)"/><use xlink:href="#aH" transform="matrix(1,0,0,1,2890.5444661164033,1024.8) translate(133.97500000000002 71.5)"/></g><path d="M2520.5 860h88.86" stroke="#333" fill="none"/><path d="M2520.5 860.5h-.5v-1h.5z" stroke="#333" stroke-width=".05" fill="#333"/><path d="M2624.13 860l-14.27 4.63v-9.26z" stroke="#333" fill="#333"/><path d="M2520.43 859.74l351.28-211.3" stroke="#333" fill="none"/><path d="M2520.7 860.16l-.7.42v-1.16l.18-.1z" stroke="#333" stroke-width=".05" fill="#333"/><path d="M2884.36 640.83l-9.84 11.33-4.78-7.94z" stroke="#333" fill="#333"/><path d="M2520.43 860.26l351.28 211.3" stroke="#333" fill="none"/><path d="M2520.7 859.84l-.52.85-.18-.12v-1.16z" stroke="#333" stroke-width=".05" fill="#333"/><path d="M2884.36 1079.17l-14.62-3.38 4.78-7.96z" stroke="#333" fill="#333"/><path d="M2842.97 859.5l39.64-203.42" stroke="#333" fill="none"/><path d="M2843.46 859.6l-.6 3v-3.12z" stroke="#333" stroke-width=".05" fill="#333"/><path d="M2885.43 641.6l1.83 14.88-9.1-1.78z" stroke="#333" fill="#333"/><path d="M2842.97 860.5l39.64 203.42" stroke="#333" fill="none"/><path d="M2843.46 860.4l-.6.12v-3.13z" stroke="#333" stroke-width=".05" fill="#333"/><path d="M2885.43 1078.4l-7.27-13.1 9.1-1.78z" stroke="#333" fill="#333"/><defs><path fill="#fff" d="M179 0l23-115H67L45 0H11l48-248h34L72-143h135l21-105h32L212 0h-33" id="aI"/><path fill="#fff" d="M151-220L108 0H75l42-220H32l6-28h203l-5 28h-85" id="aJ"/><path fill="#fff" d="M11 0l48-248h34L50-27h125l-5 27H11" id="aK"/><g id="a"><use transform="matrix(0.05,0,0,0.05,0,0)" xlink:href="#aI"/><use transform="matrix(0.05,0,0,0.05,12.950000000000001,0)" xlink:href="#aJ"/><use transform="matrix(0.05,0,0,0.05,23.900000000000002,0)" xlink:href="#aK"/></g><path fill="#fff" d="M238-179c0 84-86 86-175 82L45 0H11l48-248c82 0 179-12 179 69zm-34 1c0-53-64-42-116-43l-19 98c63 0 135 9 135-55" id="aL"/><path fill="#fff" d="M187 0l-14-72H61L19 0h-37l149-248h38L221 0h-34zm-19-99l-22-123L76-99h92" id="aM"/><path fill="#fff" d="M249-183c0 48-29 72-75 77L221 0h-36l-43-103H65L45 0H11l48-248c83 2 190-17 190 65zm-34 3c0-55-74-39-127-41l-18 92c63-1 145 13 145-51" id="aN"/><path fill="#fff" d="M219-77C219 17 104-2 11 0l48-248c73 2 169-15 169 57 0 38-24 54-60 60 29 5 51 21 51 54zm-26-111c0-44-62-31-105-33l-16 79c55 0 121 9 121-46zm-7 110c-1-49-69-36-119-38L50-27c61-1 137 12 136-51" id="aO"/><path fill="#fff" d="M11 0l48-248h184l-5 28H87l-15 79h140l-5 27H67L50-27h158l-5 27H11" id="aP"/><g id="b"><use transform="matrix(0.05,0,0,0.05,0,0)" xlink:href="#aL"/><use transform="matrix(0.05,0,0,0.05,10.65,0)" xlink:href="#aM"/><use transform="matrix(0.05,0,0,0.05,22.65,0)" xlink:href="#aN"/><use transform="matrix(0.05,0,0,0.05,35.6,0)" xlink:href="#aM"/><use transform="matrix(0.05,0,0,0.05,47.6,0)" xlink:href="#aO"/><use transform="matrix(0.05,0,0,0.05,59.6,0)" xlink:href="#aK"/><use transform="matrix(0.05,0,0,0.05,69.6,0)" xlink:href="#aP"/></g><path fill="#fff" d="M16-82c0-90 25-169 113-169 48 0 68 33 68 82C197-79 170 4 84 4 37 4 16-31 16-82zm30 5c0 32 11 55 40 55 69 0 76-79 80-149 2-32-10-55-39-55-69 0-81 81-81 149" id="aQ"/><use transform="matrix(0.05,0,0,0.05,0,0)" xlink:href="#aQ" id="c"/><path fill="#fff" d="M103-194c29 0 47 14 56 36 2-11 5-23 8-32h30L160-5C157 61 82 97 21 62 9 55 4 45 1 30l28-7c7 42 83 31 92-3 4-16 9-38 13-55-13 20-29 36-62 36-40 0-60-25-60-64 0-71 23-131 91-131zm4 24c-53 0-58 54-61 104-2 27 10 44 36 44 49 0 65-50 67-102 1-29-15-46-42-46" id="aR"/><path fill="#fff" d="M30-147c31-64 166-65 159 27C183-49 158 1 86 4 9 8 1-88 30-147zM88-20c53 0 68-48 68-100 0-31-11-51-44-50-52 1-68 46-68 97 0 32 13 53 44 53" id="aS"/><g id="d"><use transform="matrix(0.05,0,0,0.05,0,0)" xlink:href="#aR"/><use transform="matrix(0.05,0,0,0.05,10,0)" xlink:href="#aS"/></g><path fill="#fff" d="M66-151c12-25 30-51 66-40l-6 26C45-176 58-65 38 0H6l36-190h30" id="aT"/><path fill="#fff" d="M50-231l6-30h32l-6 30H50zM6 0l37-190h31L37 0H6" id="aU"/><path fill="#fff" d="M67-158c15-20 31-36 64-36 94 0 33 127 27 194h-32l25-140c3-38-53-32-70-12C52-117 51-51 37 0H6l51-261h31" id="aV"/><path fill="#fff" d="M51-54c-9 22 5 41 31 30L79-1C43 14 10-4 19-52l22-115H19l5-23h22l19-43h21l-9 43h35l-4 23H73" id="aW"/><g id="e"><use transform="matrix(0.05,0,0,0.05,0,0)" xlink:href="#aT"/><use transform="matrix(0.05,0,0,0.05,5.95,0)" xlink:href="#aU"/><use transform="matrix(0.05,0,0,0.05,9.9,0)" xlink:href="#aR"/><use transform="matrix(0.05,0,0,0.05,19.9,0)" xlink:href="#aV"/><use transform="matrix(0.05,0,0,0.05,29.899999999999995,0)" xlink:href="#aW"/></g><path fill="#fff" d="M14 0l8-38h34L48 0H14" id="aX"/><path fill="#fff" d="M123-251c66 0 92 69 53 113C138-94 73-75 39-27h128l-5 27H-2c17-92 123-93 159-163 14-28-1-64-36-62-29 2-46 17-54 41l-30-6c13-36 37-61 86-61" id="aY"/><g id="f"><use transform="matrix(0.05,0,0,0.05,0,0)" xlink:href="#aQ"/><use transform="matrix(0.05,0,0,0.05,10,0)" xlink:href="#aX"/><use transform="matrix(0.05,0,0,0.05,15,0)" xlink:href="#aY"/></g><path fill="#fff" d="M177-190C167-65 218 103 67 71c-23-6-38-20-44-43l32-5c15 47 100 32 89-28v-30C133-14 115 1 83 1 29 1 15-40 15-95c0-56 16-97 71-98 29-1 48 16 59 35 1-10 0-23 2-32h30zM94-22c36 0 50-32 50-73 0-42-14-75-50-75-39 0-46 34-46 75s6 73 46 73" id="aZ"/><path fill="#fff" d="M100-194c62-1 85 37 85 99 1 63-27 99-86 99S16-35 15-95c0-66 28-99 85-99zM99-20c44 1 53-31 53-75 0-43-8-75-51-75s-53 32-53 75 10 74 51 75" id="ba"/><g id="g"><use transform="matrix(0.05,0,0,0.05,0,0)" xlink:href="#aZ"/><use transform="matrix(0.05,0,0,0.05,10,0)" xlink:href="#ba"/></g><path fill="#fff" d="M84 4C-5 8 30-112 23-190h32v120c0 31 7 50 39 49 72-2 45-101 50-169h31l1 190h-30c-1-10 1-25-2-33-11 22-28 36-60 37" id="bb"/><path fill="#fff" d="M115-194c55 1 70 41 70 98S169 2 115 4C84 4 66-9 55-30l1 105H24l-1-265h31l2 30c10-21 28-34 59-34zm-8 174c40 0 45-34 45-75s-6-73-45-74c-42 0-51 32-51 76 0 43 10 73 51 73" id="bc"/><g id="h"><use transform="matrix(0.05,0,0,0.05,0,0)" xlink:href="#bb"/><use transform="matrix(0.05,0,0,0.05,10,0)" xlink:href="#bc"/></g><path fill="#fff" d="M59-47c-2 24 18 29 38 22v24C64 9 27 4 27-40v-127H5v-23h24l9-43h21v43h35v23H59v120" id="bd"/><path fill="#fff" d="M106-169C34-169 62-67 57 0H25v-261h32l-1 103c12-21 28-36 61-36 89 0 53 116 60 194h-32v-121c2-32-8-49-39-48" id="be"/><path fill="#fff" d="M100-194c63 0 86 42 84 106H49c0 40 14 67 53 68 26 1 43-12 49-29l28 8c-11 28-37 45-77 45C44 4 14-33 15-96c1-61 26-98 85-98zm52 81c6-60-76-77-97-28-3 7-6 17-6 28h103" id="bf"/><g id="i"><use transform="matrix(0.05,0,0,0.05,0,0)" xlink:href="#bd"/><use transform="matrix(0.05,0,0,0.05,5,0)" xlink:href="#be"/><use transform="matrix(0.05,0,0,0.05,15,0)" xlink:href="#bf"/></g><path fill="#fff" d="M135-143c-3-34-86-38-87 0 15 53 115 12 119 90S17 21 10-45l28-5c4 36 97 45 98 0-10-56-113-15-118-90-4-57 82-63 122-42 12 7 21 19 24 35" id="bg"/><path fill="#fff" d="M141-36C126-15 110 5 73 4 37 3 15-17 15-53c-1-64 63-63 125-63 3-35-9-54-41-54-24 1-41 7-42 31l-33-3c5-37 33-52 76-52 45 0 72 20 72 64v82c-1 20 7 32 28 27v20c-31 9-61-2-59-35zM48-53c0 20 12 33 32 33 41-3 63-29 60-74-43 2-92-5-92 41" id="bh"/><path fill="#fff" d="M24-231v-30h32v30H24zM24 0v-190h32V0H24" id="bi"/><path fill="#fff" d="M114-163C36-179 61-72 57 0H25l-1-190h30c1 12-1 29 2 39 6-27 23-49 58-41v29" id="bj"/><g id="j"><use transform="matrix(0.05,0,0,0.05,0,0)" xlink:href="#bg"/><use transform="matrix(0.05,0,0,0.05,9,0)" xlink:href="#bd"/><use transform="matrix(0.05,0,0,0.05,14,0)" xlink:href="#bh"/><use transform="matrix(0.05,0,0,0.05,24,0)" xlink:href="#bi"/><use transform="matrix(0.05,0,0,0.05,27.950000000000003,0)" xlink:href="#bj"/><use transform="matrix(0.05,0,0,0.05,33.9,0)" xlink:href="#bg"/></g><path fill="#fff" d="M27 0v-27h64v-190l-56 39v-29l58-41h29v221h61V0H27" id="bk"/><use transform="matrix(0.05,0,0,0.05,0,0)" xlink:href="#bk" id="k"/><path fill="#fff" d="M179-190L93 31C79 59 56 82 12 73V49c39 6 53-20 64-50L1-190h34L92-34l54-156h33" id="bl"/><g id="l"><use transform="matrix(0.05,0,0,0.05,0,0)" xlink:href="#bg"/><use transform="matrix(0.05,0,0,0.05,9,0)" xlink:href="#bd"/><use transform="matrix(0.05,0,0,0.05,14,0)" xlink:href="#bh"/><use transform="matrix(0.05,0,0,0.05,24,0)" xlink:href="#bl"/></g><path fill="#fff" d="M87 75C49 33 22-17 22-94c0-76 28-126 65-167h31c-38 41-64 92-64 168S80 34 118 75H87" id="bm"/><path fill="#fff" d="M85-194c31 0 48 13 60 33l-1-100h32l1 261h-30c-2-10 0-23-3-31C134-8 116 4 85 4 32 4 16-35 15-94c0-66 23-100 70-100zm9 24c-40 0-46 34-46 75 0 40 6 74 45 74 42 0 51-32 51-76 0-42-9-74-50-73" id="bn"/><path fill="#fff" d="M117-194c89-4 53 116 60 194h-32v-121c0-31-8-49-39-48C34-167 62-67 57 0H25l-1-190h30c1 10-1 24 2 32 11-22 29-35 61-36" id="bo"/><g id="m"><use transform="matrix(0.05,0,0,0.05,0,0)" xlink:href="#bm"/><use transform="matrix(0.05,0,0,0.05,5.95,0)" xlink:href="#be"/><use transform="matrix(0.05,0,0,0.05,15.949999999999998,0)" xlink:href="#bi"/><use transform="matrix(0.05,0,0,0.05,19.9,0)" xlink:href="#bn"/><use transform="matrix(0.05,0,0,0.05,29.899999999999995,0)" xlink:href="#bn"/><use transform="matrix(0.05,0,0,0.05,39.9,0)" xlink:href="#bf"/><use transform="matrix(0.05,0,0,0.05,49.9,0)" xlink:href="#bo"/></g><path fill="#fff" d="M33-261c38 41 65 92 65 168S71 34 33 75H2C39 34 66-17 66-93S39-220 2-261h31" id="bp"/><g id="n"><use transform="matrix(0.05,0,0,0.05,0,0)" xlink:href="#ba"/><use transform="matrix(0.05,0,0,0.05,10,0)" xlink:href="#bc"/><use transform="matrix(0.05,0,0,0.05,20,0)" xlink:href="#bd"/><use transform="matrix(0.05,0,0,0.05,25,0)" xlink:href="#bi"/><use transform="matrix(0.05,0,0,0.05,28.950000000000003,0)" xlink:href="#ba"/><use transform="matrix(0.05,0,0,0.05,38.95,0)" xlink:href="#bo"/><use transform="matrix(0.05,0,0,0.05,48.95,0)" xlink:href="#bp"/></g><path fill="#fff" d="M101-251c68 0 85 55 85 127S166 4 100 4C33 4 14-52 14-124c0-73 17-127 87-127zm-1 229c47 0 54-49 54-102s-4-102-53-102c-51 0-55 48-55 102 0 53 5 102 54 102" id="bq"/><path fill="#fff" d="M33 0v-38h34V0H33" id="br"/><g id="o"><use transform="matrix(0.05,0,0,0.05,0,0)" xlink:href="#bq"/><use transform="matrix(0.05,0,0,0.05,10,0)" xlink:href="#br"/><use transform="matrix(0.05,0,0,0.05,15,0)" xlink:href="#bk"/></g><path fill="#a9afb8" d="M136-208V0H84v-208H4v-40h212v40h-80" id="bs"/><path fill="#a9afb8" d="M114-157C55-157 80-60 75 0H25v-261h50l-1 109c12-26 28-41 61-42 86-1 58 113 63 194h-50c-7-57 23-157-34-157" id="bt"/><path fill="#a9afb8" d="M185-48c-13 30-37 53-82 52C43 2 14-33 14-96s30-98 90-98c62 0 83 45 84 108H66c0 31 8 55 39 56 18 0 30-7 34-22zm-45-69c5-46-57-63-70-21-2 6-4 13-4 21h74" id="bu"/><g id="p"><use transform="matrix(0.0728395061728395,0,0,0.0728395061728395,0,0)" xlink:href="#bs"/><use transform="matrix(0.0728395061728395,0,0,0.0728395061728395,15.95185185185185,0)" xlink:href="#bt"/><use transform="matrix(0.0728395061728395,0,0,0.0728395061728395,31.9037037037037,0)" xlink:href="#bu"/></g><path fill="#a9afb8" d="M186 0v-106H76V0H24v-248h52v99h110v-99h50V0h-50" id="bv"/><path fill="#a9afb8" d="M24 0v-248h52v208h133V0H24" id="bw"/><g id="q"><use transform="matrix(0.0728395061728395,0,0,0.0728395061728395,0,0)" xlink:href="#bv"/><use transform="matrix(0.0728395061728395,0,0,0.0728395061728395,18.86543209876543,0)" xlink:href="#bs"/><use transform="matrix(0.0728395061728395,0,0,0.0728395061728395,34.81728395061728,0)" xlink:href="#bw"/></g><path fill="#a9afb8" d="M24-248c93 1 206-16 204 79-1 75-69 88-152 82V0H24v-248zm52 121c47 0 100 7 100-41 0-47-54-39-100-39v80" id="bx"/><path fill="#a9afb8" d="M133-34C117-15 103 5 69 4 32 3 11-16 11-54c-1-60 55-63 116-61 1-26-3-47-28-47-18 1-26 9-28 27l-52-2c7-38 36-58 82-57s74 22 75 68l1 82c-1 14 12 18 25 15v27c-30 8-71 5-69-32zm-48 3c29 0 43-24 42-57-32 0-66-3-65 30 0 17 8 27 23 27" id="by"/><path fill="#a9afb8" d="M135-150c-39-12-60 13-60 57V0H25l-1-190h47c2 13-1 29 3 40 6-28 27-53 61-41v41" id="bz"/><path fill="#a9afb8" d="M135-194c52 0 70 43 70 98 0 56-19 99-73 100-30 1-46-15-58-35L72 0H24l1-261h50v104c11-23 29-37 60-37zM114-30c31 0 40-27 40-66 0-37-7-63-39-63s-41 28-41 65c0 36 8 64 40 64" id="bA"/><path fill="#a9afb8" d="M25 0v-261h50V0H25" id="bB"/><g id="r"><use transform="matrix(0.0728395061728395,0,0,0.0728395061728395,0,0)" xlink:href="#bx"/><use transform="matrix(0.0728395061728395,0,0,0.0728395061728395,17.48148148148148,0)" xlink:href="#by"/><use transform="matrix(0.0728395061728395,0,0,0.0728395061728395,32.04938271604938,0)" xlink:href="#bz"/><use transform="matrix(0.0728395061728395,0,0,0.0728395061728395,42.24691358024691,0)" xlink:href="#by"/><use transform="matrix(0.0728395061728395,0,0,0.0728395061728395,56.8148148148148,0)" xlink:href="#bA"/><use transform="matrix(0.0728395061728395,0,0,0.0728395061728395,72.76666666666667,0)" xlink:href="#bB"/><use transform="matrix(0.0728395061728395,0,0,0.0728395061728395,80.05061728395061,0)" xlink:href="#bu"/></g><path fill="#a9afb8" d="M30-248c87 1 191-15 191 75 0 78-77 80-158 76V0H30v-248zm33 125c57 0 124 11 124-50 0-59-68-47-124-48v98" id="bC"/><path fill="#a9afb8" d="M141-36C126-15 110 5 73 4 37 3 15-17 15-53c-1-64 63-63 125-63 3-35-9-54-41-54-24 1-41 7-42 31l-33-3c5-37 33-52 76-52 45 0 72 20 72 64v82c-1 20 7 32 28 27v20c-31 9-61-2-59-35zM48-53c0 20 12 33 32 33 41-3 63-29 60-74-43 2-92-5-92 41" id="bD"/><path fill="#a9afb8" d="M84 4C-5 8 30-112 23-190h32v120c0 31 7 50 39 49 72-2 45-101 50-169h31l1 190h-30c-1-10 1-25-2-33-11 22-28 36-60 37" id="bE"/><path fill="#a9afb8" d="M24 0v-261h32V0H24" id="bF"/><g id="s"><use transform="matrix(0.04248971193415638,0,0,0.04248971193415638,0,0)" xlink:href="#bC"/><use transform="matrix(0.04248971193415638,0,0,0.04248971193415638,10.19753086419753,0)" xlink:href="#bD"/><use transform="matrix(0.04248971193415638,0,0,0.04248971193415638,18.695473251028805,0)" xlink:href="#bE"/><use transform="matrix(0.04248971193415638,0,0,0.04248971193415638,27.193415637860078,0)" xlink:href="#bF"/></g><path fill="#a9afb8" d="M190 0L58-211 59 0H30v-248h39L202-35l-2-213h31V0h-41" id="bG"/><path fill="#a9afb8" d="M100-194c63 0 86 42 84 106H49c0 40 14 67 53 68 26 1 43-12 49-29l28 8c-11 28-37 45-77 45C44 4 14-33 15-96c1-61 26-98 85-98zm52 81c6-60-76-77-97-28-3 7-6 17-6 28h103" id="bH"/><g id="t"><use transform="matrix(0.04248971193415638,0,0,0.04248971193415638,0,0)" xlink:href="#bG"/><use transform="matrix(0.04248971193415638,0,0,0.04248971193415638,11.004835390946502,0)" xlink:href="#bH"/><use transform="matrix(0.04248971193415638,0,0,0.04248971193415638,19.502777777777776,0)" xlink:href="#bF"/><use transform="matrix(0.04248971193415638,0,0,0.04248971193415638,22.85946502057613,0)" xlink:href="#bF"/></g><path fill="#a9afb8" d="M32 76v-337h29V76H32" id="bI"/><use transform="matrix(0.04248971193415638,0,0,0.04248971193415638,0,0)" xlink:href="#bI" id="u"/><path fill="#a9afb8" d="M153-248C145-148 188 4 80 4 36 3 13-21 6-62l32-5c4 25 16 42 43 43 27 0 39-20 39-49v-147H72v-28h81" id="bJ"/><path fill="#a9afb8" d="M117-194c89-4 53 116 60 194h-32v-121c0-31-8-49-39-48C34-167 62-67 57 0H25l-1-190h30c1 10-1 24 2 32 11-22 29-35 61-36" id="bK"/><g id="v"><use transform="matrix(0.04248971193415638,0,0,0.04248971193415638,0,0)" xlink:href="#bJ"/><use transform="matrix(0.04248971193415638,0,0,0.04248971193415638,7.648148148148148,0)" xlink:href="#bE"/><use transform="matrix(0.04248971193415638,0,0,0.04248971193415638,16.14609053497942,0)" xlink:href="#bK"/><use transform="matrix(0.04248971193415638,0,0,0.04248971193415638,24.644032921810698,0)" xlink:href="#bH"/></g><path fill="#a9afb8" d="M101-251c82-7 93 87 43 132L82-64C71-53 59-42 53-27h129V0H18c2-99 128-94 128-182 0-28-16-43-45-43s-46 15-49 41l-32-3c6-41 34-60 81-64" id="bL"/><path fill="#a9afb8" d="M68-38c1 34 0 65-14 84H32c9-13 17-26 17-46H33v-38h35" id="bM"/><g id="w"><use transform="matrix(0.04248971193415638,0,0,0.04248971193415638,0,0)" xlink:href="#bL"/><use transform="matrix(0.04248971193415638,0,0,0.04248971193415638,8.497942386831275,0)" xlink:href="#bL"/><use transform="matrix(0.04248971193415638,0,0,0.04248971193415638,16.99588477366255,0)" xlink:href="#bM"/></g><path fill="#a9afb8" d="M101-251c68 0 85 55 85 127S166 4 100 4C33 4 14-52 14-124c0-73 17-127 87-127zm-1 229c47 0 54-49 54-102s-4-102-53-102c-51 0-55 48-55 102 0 53 5 102 54 102" id="bN"/><path fill="#a9afb8" d="M126-127c33 6 58 20 58 59 0 88-139 92-164 29-3-8-5-16-6-25l32-3c6 27 21 44 54 44 32 0 52-15 52-46 0-38-36-46-79-43v-28c39 1 72-4 72-42 0-27-17-43-46-43-28 0-47 15-49 41l-32-3c6-42 35-63 81-64 48-1 79 21 79 65 0 36-21 52-52 59" id="bO"/><g id="x"><use transform="matrix(0.04248971193415638,0,0,0.04248971193415638,0,0)" xlink:href="#bL"/><use transform="matrix(0.04248971193415638,0,0,0.04248971193415638,8.497942386831275,0)" xlink:href="#bN"/><use transform="matrix(0.04248971193415638,0,0,0.04248971193415638,16.99588477366255,0)" xlink:href="#bL"/><use transform="matrix(0.04248971193415638,0,0,0.04248971193415638,25.493827160493822,0)" xlink:href="#bO"/></g><g id="y"><use transform="matrix(0.05,0,0,0.05,0,0)" xlink:href="#aZ"/><use transform="matrix(0.05,0,0,0.05,10,0)" xlink:href="#bj"/><use transform="matrix(0.05,0,0,0.05,15.949999999999998,0)" xlink:href="#bf"/><use transform="matrix(0.05,0,0,0.05,25.950000000000003,0)" xlink:href="#bf"/><use transform="matrix(0.05,0,0,0.05,35.95,0)" xlink:href="#bd"/></g><path fill="#fff" d="M96-169c-40 0-48 33-48 73s9 75 48 75c24 0 41-14 43-38l32 2c-6 37-31 61-74 61-59 0-76-41-82-99-10-93 101-131 147-64 4 7 5 14 7 22l-32 3c-4-21-16-35-41-35" id="bP"/><g id="z"><use transform="matrix(0.05,0,0,0.05,0,0)" xlink:href="#bd"/><use transform="matrix(0.05,0,0,0.05,5,0)" xlink:href="#bf"/><use transform="matrix(0.05,0,0,0.05,15,0)" xlink:href="#bh"/><use transform="matrix(0.05,0,0,0.05,25,0)" xlink:href="#bP"/><use transform="matrix(0.05,0,0,0.05,34,0)" xlink:href="#be"/><use transform="matrix(0.05,0,0,0.05,44,0)" xlink:href="#bf"/><use transform="matrix(0.05,0,0,0.05,54,0)" xlink:href="#bj"/></g><g id="A"><use transform="matrix(0.05,0,0,0.05,0,0)" xlink:href="#bk"/><use transform="matrix(0.05,0,0,0.05,10,0)" xlink:href="#br"/><use transform="matrix(0.05,0,0,0.05,15,0)" xlink:href="#bq"/></g><g id="B"><use transform="matrix(0.05,0,0,0.05,0,0)" xlink:href="#bi"/><use transform="matrix(0.05,0,0,0.05,3.95,0)" xlink:href="#aZ"/><use transform="matrix(0.05,0,0,0.05,13.949999999999998,0)" xlink:href="#bo"/><use transform="matrix(0.05,0,0,0.05,23.95,0)" xlink:href="#ba"/><use transform="matrix(0.05,0,0,0.05,33.95,0)" xlink:href="#bj"/><use transform="matrix(0.05,0,0,0.05,39.900000000000006,0)" xlink:href="#bf"/></g><path fill="#fff" d="M101-251c82-7 93 87 43 132L82-64C71-53 59-42 53-27h129V0H18c2-99 128-94 128-182 0-28-16-43-45-43s-46 15-49 41l-32-3c6-41 34-60 81-64" id="bQ"/><use transform="matrix(0.05,0,0,0.05,0,0)" xlink:href="#bQ" id="C"/><g id="D"><use transform="matrix(0.05,0,0,0.05,0,0)" xlink:href="#bf"/><use transform="matrix(0.05,0,0,0.05,10,0)" xlink:href="#bo"/><use transform="matrix(0.05,0,0,0.05,20,0)" xlink:href="#bd"/><use transform="matrix(0.05,0,0,0.05,25,0)" xlink:href="#bf"/><use transform="matrix(0.05,0,0,0.05,35,0)" xlink:href="#bj"/></g><path fill="#fff" d="M24 0v-261h32V0H24" id="bR"/><g id="E"><use transform="matrix(0.05,0,0,0.05,0,0)" xlink:href="#bP"/><use transform="matrix(0.05,0,0,0.05,9,0)" xlink:href="#bR"/><use transform="matrix(0.05,0,0,0.05,12.949999999999998,0)" xlink:href="#bh"/><use transform="matrix(0.05,0,0,0.05,22.95,0)" xlink:href="#bg"/><use transform="matrix(0.05,0,0,0.05,31.950000000000003,0)" xlink:href="#bg"/></g><path fill="#fff" d="M126-127c33 6 58 20 58 59 0 88-139 92-164 29-3-8-5-16-6-25l32-3c6 27 21 44 54 44 32 0 52-15 52-46 0-38-36-46-79-43v-28c39 1 72-4 72-42 0-27-17-43-46-43-28 0-47 15-49 41l-32-3c6-42 35-63 81-64 48-1 79 21 79 65 0 36-21 52-52 59" id="bS"/><use transform="matrix(0.05,0,0,0.05,0,0)" xlink:href="#bS" id="F"/><g id="G"><use transform="matrix(0.05,0,0,0.05,0,0)" xlink:href="#bg"/><use transform="matrix(0.05,0,0,0.05,9,0)" xlink:href="#bR"/><use transform="matrix(0.05,0,0,0.05,12.949999999999998,0)" xlink:href="#bi"/><use transform="matrix(0.05,0,0,0.05,16.9,0)" xlink:href="#aZ"/><use transform="matrix(0.05,0,0,0.05,26.899999999999995,0)" xlink:href="#be"/><use transform="matrix(0.05,0,0,0.05,36.9,0)" xlink:href="#bd"/><use transform="matrix(0.05,0,0,0.05,41.9,0)" xlink:href="#bR"/><use transform="matrix(0.05,0,0,0.05,45.85,0)" xlink:href="#bl"/></g><g id="H"><use transform="matrix(0.05,0,0,0.05,0,0)" xlink:href="#ba"/><use transform="matrix(0.05,0,0,0.05,10,0)" xlink:href="#bc"/><use transform="matrix(0.05,0,0,0.05,20,0)" xlink:href="#bf"/><use transform="matrix(0.05,0,0,0.05,30,0)" xlink:href="#bo"/><use transform="matrix(0.05,0,0,0.05,40,0)" xlink:href="#bn"/></g><g id="I"><use transform="matrix(0.05,0,0,0.05,0,0)" xlink:href="#bn"/><use transform="matrix(0.05,0,0,0.05,10,0)" xlink:href="#ba"/><use transform="matrix(0.05,0,0,0.05,20,0)" xlink:href="#ba"/><use transform="matrix(0.05,0,0,0.05,30,0)" xlink:href="#bj"/></g><g id="J"><use transform="matrix(0.05,0,0,0.05,0,0)" xlink:href="#bq"/><use transform="matrix(0.05,0,0,0.05,10,0)" xlink:href="#br"/><use transform="matrix(0.05,0,0,0.05,15,0)" xlink:href="#bQ"/><use transform="matrix(0.05,0,0,0.05,25,0)" xlink:href="#br"/><use transform="matrix(0.05,0,0,0.05,30,0)" xlink:href="#bq"/></g><path fill="#fff" d="M133-28C103 26-5 8 13-77c13-62 24-115 90-117 29-1 46 15 56 35l19-102h32L160 0h-30zM45-64c-2 27 10 43 35 43 54-1 69-50 69-103 0-29-15-46-42-46-53-1-58 58-62 106" id="bT"/><path fill="#fff" d="M188 0h-37l-8-164L71 0H34L18-190h31l8 164 75-164h34l8 164 74-164h31" id="bU"/><path fill="#fff" d="M67-158c22-48 132-52 116 29L158 0h-32l25-140c3-38-53-32-70-12C52-117 51-52 38 0H6l36-190h30" id="bV"/><g id="K"><use transform="matrix(0.05,0,0,0.05,0,0)" xlink:href="#bT"/><use transform="matrix(0.05,0,0,0.05,10,0)" xlink:href="#aS"/><use transform="matrix(0.05,0,0,0.05,20,0)" xlink:href="#bU"/><use transform="matrix(0.05,0,0,0.05,32.95,0)" xlink:href="#bV"/></g><path fill="#fff" d="M111-194c62-3 86 47 72 106H45c-7 38 6 69 45 68 27-1 43-14 53-32l24 11C152-15 129 4 87 4 38 3 12-23 12-71c0-70 32-119 99-123zm44 81c14-66-71-72-95-28-4 8-8 17-11 28h106" id="bW"/><g id="L"><use transform="matrix(0.05,0,0,0.05,0,0)" xlink:href="#aW"/><use transform="matrix(0.05,0,0,0.05,5,0)" xlink:href="#aV"/><use transform="matrix(0.05,0,0,0.05,15,0)" xlink:href="#bW"/></g><path fill="#fff" d="M165-48c-4 18 1 34 23 27l-3 20c-29 8-62 0-52-35h-2C116-14 99 4 63 4 30 4 8-16 8-49c0-68 71-67 138-67 10-26 0-56-31-54-26 1-42 9-47 31l-32-5c8-67 160-71 144 15-5 28-9 54-15 81zM42-50c3 52 80 24 89-6 7-12 7-24 11-38-47 1-103-4-100 44" id="bX"/><path fill="#fff" d="M6 0l50-261h32L37 0H6" id="bY"/><path fill="#fff" d="M198-190L69 30C53 58 25 83-20 72c4-11-1-27 19-22 33-1 43-29 59-52L20-190h32L79-34l84-156h35" id="bZ"/><g id="M"><use transform="matrix(0.05,0,0,0.05,0,0)" xlink:href="#aV"/><use transform="matrix(0.05,0,0,0.05,10,0)" xlink:href="#bX"/><use transform="matrix(0.05,0,0,0.05,20,0)" xlink:href="#bY"/><use transform="matrix(0.05,0,0,0.05,23.95,0)" xlink:href="#bY"/><use transform="matrix(0.05,0,0,0.05,27.899999999999995,0)" xlink:href="#bU"/><use transform="matrix(0.05,0,0,0.05,40.85,0)" xlink:href="#bX"/><use transform="matrix(0.05,0,0,0.05,50.85,0)" xlink:href="#bZ"/></g><path fill="#fff" d="M148-71c0-36-31-44-71-41l5-28c46 3 81-6 81-50 0-23-15-35-39-35-30 0-49 17-56 41l-32-3c12-39 42-63 90-64 43 0 69 19 71 60 1 43-30 58-65 66 27 5 49 22 49 53 0 85-133 99-164 35-4-7-7-15-9-22l29-9c8 25 25 45 58 45 34 1 53-17 53-48" id="ca"/><g id="N"><use transform="matrix(0.05,0,0,0.05,0,0)" xlink:href="#aQ"/><use transform="matrix(0.05,0,0,0.05,10,0)" xlink:href="#aX"/><use transform="matrix(0.05,0,0,0.05,15,0)" xlink:href="#ca"/></g><path fill="#fff" d="M101-234c-31-9-42 10-38 44h38v23H63V0H32v-167H5v-23h27c-7-52 17-82 69-68v24" id="cb"/><path fill="#fff" d="M206 0h-36l-40-164L89 0H53L-1-190h32L70-26l43-164h34l41 164 42-164h31" id="cc"/><g id="O"><use transform="matrix(0.05,0,0,0.05,0,0)" xlink:href="#cb"/><use transform="matrix(0.05,0,0,0.05,5,0)" xlink:href="#ba"/><use transform="matrix(0.05,0,0,0.05,15,0)" xlink:href="#bR"/><use transform="matrix(0.05,0,0,0.05,18.95,0)" xlink:href="#bR"/><use transform="matrix(0.05,0,0,0.05,22.9,0)" xlink:href="#ba"/><use transform="matrix(0.05,0,0,0.05,32.9,0)" xlink:href="#cc"/></g><g id="P"><use transform="matrix(0.05,0,0,0.05,0,0)" xlink:href="#bi"/><use transform="matrix(0.05,0,0,0.05,3.95,0)" xlink:href="#bo"/><use transform="matrix(0.05,0,0,0.05,13.949999999999998,0)" xlink:href="#bd"/><use transform="matrix(0.05,0,0,0.05,18.95,0)" xlink:href="#ba"/></g><g id="Q"><use transform="matrix(0.05,0,0,0.05,0,0)" xlink:href="#ba"/><use transform="matrix(0.05,0,0,0.05,10,0)" xlink:href="#cb"/><use transform="matrix(0.05,0,0,0.05,14.65,0)" xlink:href="#cb"/><use transform="matrix(0.05,0,0,0.05,19.65,0)" xlink:href="#bi"/><use transform="matrix(0.05,0,0,0.05,23.599999999999998,0)" xlink:href="#bP"/><use transform="matrix(0.05,0,0,0.05,32.599999999999994,0)" xlink:href="#bf"/></g><g id="R"><use transform="matrix(0.05,0,0,0.05,0,0)" xlink:href="#bk"/><use transform="matrix(0.05,0,0,0.05,10,0)" xlink:href="#br"/><use transform="matrix(0.05,0,0,0.05,15,0)" xlink:href="#bk"/></g><g id="S"><use transform="matrix(0.05,0,0,0.05,0,0)" xlink:href="#bd"/><use transform="matrix(0.05,0,0,0.05,5,0)" xlink:href="#ba"/><use transform="matrix(0.05,0,0,0.05,15,0)" xlink:href="#bi"/><use transform="matrix(0.05,0,0,0.05,18.95,0)" xlink:href="#bR"/><use transform="matrix(0.05,0,0,0.05,22.9,0)" xlink:href="#bf"/><use transform="matrix(0.05,0,0,0.05,32.9,0)" xlink:href="#bd"/></g><g id="T"><use transform="matrix(0.05,0,0,0.05,0,0)" xlink:href="#bQ"/><use transform="matrix(0.05,0,0,0.05,10,0)" xlink:href="#br"/><use transform="matrix(0.05,0,0,0.05,15,0)" xlink:href="#bq"/></g><path fill="#fff" d="M143 0L79-87 56-68V0H24v-261h32v163l83-92h37l-77 82L181 0h-38" id="cd"/><g id="U"><use transform="matrix(0.05,0,0,0.05,0,0)" xlink:href="#bn"/><use transform="matrix(0.05,0,0,0.05,10,0)" xlink:href="#bi"/><use transform="matrix(0.05,0,0,0.05,13.949999999999998,0)" xlink:href="#bo"/><use transform="matrix(0.05,0,0,0.05,23.95,0)" xlink:href="#cd"/></g><g id="V"><use transform="matrix(0.05,0,0,0.05,0,0)" xlink:href="#bP"/><use transform="matrix(0.05,0,0,0.05,9,0)" xlink:href="#ba"/><use transform="matrix(0.05,0,0,0.05,19,0)" xlink:href="#cb"/><use transform="matrix(0.05,0,0,0.05,23.65,0)" xlink:href="#cb"/><use transform="matrix(0.05,0,0,0.05,28.649999999999995,0)" xlink:href="#bf"/><use transform="matrix(0.05,0,0,0.05,38.65,0)" xlink:href="#bf"/></g><g id="W"><use transform="matrix(0.05,0,0,0.05,0,0)" xlink:href="#bk"/><use transform="matrix(0.05,0,0,0.05,10,0)" xlink:href="#br"/><use transform="matrix(0.05,0,0,0.05,15,0)" xlink:href="#bQ"/></g><g id="X"><use transform="matrix(0.05,0,0,0.05,0,0)" xlink:href="#cc"/><use transform="matrix(0.05,0,0,0.05,12.950000000000001,0)" xlink:href="#bh"/><use transform="matrix(0.05,0,0,0.05,22.950000000000003,0)" xlink:href="#bi"/><use transform="matrix(0.05,0,0,0.05,26.900000000000002,0)" xlink:href="#bd"/></g><g id="Y"><use transform="matrix(0.05,0,0,0.05,0,0)" xlink:href="#bm"/><use transform="matrix(0.05,0,0,0.05,5.95,0)" xlink:href="#bf"/><use transform="matrix(0.05,0,0,0.05,15.949999999999998,0)" xlink:href="#bo"/><use transform="matrix(0.05,0,0,0.05,25.950000000000003,0)" xlink:href="#bn"/></g><g id="Z"><use transform="matrix(0.05,0,0,0.05,0,0)" xlink:href="#ba"/><use transform="matrix(0.05,0,0,0.05,10,0)" xlink:href="#cb"/></g><g id="aa"><use transform="matrix(0.05,0,0,0.05,0,0)" xlink:href="#bc"/><use transform="matrix(0.05,0,0,0.05,10,0)" xlink:href="#bh"/><use transform="matrix(0.05,0,0,0.05,20,0)" xlink:href="#bd"/><use transform="matrix(0.05,0,0,0.05,25,0)" xlink:href="#be"/></g><g id="ab"><use transform="matrix(0.05,0,0,0.05,0,0)" xlink:href="#bh"/><use transform="matrix(0.05,0,0,0.05,10,0)" xlink:href="#bo"/><use transform="matrix(0.05,0,0,0.05,20,0)" xlink:href="#bn"/></g><g id="ac"><use transform="matrix(0.05,0,0,0.05,0,0)" xlink:href="#cc"/><use transform="matrix(0.05,0,0,0.05,12.950000000000001,0)" xlink:href="#bi"/><use transform="matrix(0.05,0,0,0.05,16.900000000000002,0)" xlink:href="#bR"/><use transform="matrix(0.05,0,0,0.05,20.85,0)" xlink:href="#bR"/></g><g id="ad"><use transform="matrix(0.05,0,0,0.05,0,0)" xlink:href="#bj"/><use transform="matrix(0.05,0,0,0.05,5.95,0)" xlink:href="#bf"/><use transform="matrix(0.05,0,0,0.05,15.949999999999998,0)" xlink:href="#bg"/><use transform="matrix(0.05,0,0,0.05,24.95,0)" xlink:href="#bb"/><use transform="matrix(0.05,0,0,0.05,34.95,0)" xlink:href="#bR"/><use transform="matrix(0.05,0,0,0.05,38.900000000000006,0)" xlink:href="#bd"/></g><g id="ae"><use transform="matrix(0.05,0,0,0.05,0,0)" xlink:href="#bi"/><use transform="matrix(0.05,0,0,0.05,3.95,0)" xlink:href="#bo"/></g><path fill="#fff" d="M210-169c-67 3-38 105-44 169h-31v-121c0-29-5-50-35-48C34-165 62-65 56 0H25l-1-190h30c1 10-1 24 2 32 10-44 99-50 107 0 11-21 27-35 58-36 85-2 47 119 55 194h-31v-121c0-29-5-49-35-48" id="ce"/><g id="af"><use transform="matrix(0.05,0,0,0.05,0,0)" xlink:href="#aZ"/><use transform="matrix(0.05,0,0,0.05,10,0)" xlink:href="#bh"/><use transform="matrix(0.05,0,0,0.05,20,0)" xlink:href="#ce"/><use transform="matrix(0.05,0,0,0.05,34.95,0)" xlink:href="#bf"/></g><g id="ag"><use transform="matrix(0.05,0,0,0.05,0,0)" xlink:href="#bj"/><use transform="matrix(0.05,0,0,0.05,5.95,0)" xlink:href="#bf"/><use transform="matrix(0.05,0,0,0.05,15.949999999999998,0)" xlink:href="#bg"/><use transform="matrix(0.05,0,0,0.05,24.95,0)" xlink:href="#bf"/><use transform="matrix(0.05,0,0,0.05,34.95,0)" xlink:href="#bd"/><use transform="matrix(0.05,0,0,0.05,39.95,0)" xlink:href="#bp"/></g><g id="ah"><use transform="matrix(0.05,0,0,0.05,0,0)" xlink:href="#bk"/><use transform="matrix(0.05,0,0,0.05,10,0)" xlink:href="#br"/><use transform="matrix(0.05,0,0,0.05,15,0)" xlink:href="#bQ"/><use transform="matrix(0.05,0,0,0.05,25,0)" xlink:href="#br"/><use transform="matrix(0.05,0,0,0.05,30,0)" xlink:href="#bq"/></g><path fill="#fff" d="M141 0L90-78 38 0H4l68-98-65-92h35l48 74 47-74h35l-64 92 68 98h-35" id="cf"/><g id="ai"><use transform="matrix(0.05,0,0,0.05,0,0)" xlink:href="#bf"/><use transform="matrix(0.05,0,0,0.05,10,0)" xlink:href="#cf"/><use transform="matrix(0.05,0,0,0.05,19,0)" xlink:href="#bi"/><use transform="matrix(0.05,0,0,0.05,22.95,0)" xlink:href="#bd"/></g><g id="aj"><use transform="matrix(0.05,0,0,0.05,0,0)" xlink:href="#bk"/><use transform="matrix(0.05,0,0,0.05,10,0)" xlink:href="#br"/><use transform="matrix(0.05,0,0,0.05,15,0)" xlink:href="#bS"/></g><g id="ak"><use transform="matrix(0.05,0,0,0.05,0,0)" xlink:href="#bq"/><use transform="matrix(0.05,0,0,0.05,10,0)" xlink:href="#br"/><use transform="matrix(0.05,0,0,0.05,15,0)" xlink:href="#bS"/><use transform="matrix(0.05,0,0,0.05,25,0)" xlink:href="#br"/><use transform="matrix(0.05,0,0,0.05,30,0)" xlink:href="#bq"/></g><g id="al"><use transform="matrix(0.05,0,0,0.05,0,0)" xlink:href="#bd"/><use transform="matrix(0.05,0,0,0.05,5,0)" xlink:href="#ba"/></g><g id="am"><use transform="matrix(0.05,0,0,0.05,0,0)" xlink:href="#bR"/><use transform="matrix(0.05,0,0,0.05,3.95,0)" xlink:href="#bf"/><use transform="matrix(0.05,0,0,0.05,13.949999999999998,0)" xlink:href="#cb"/><use transform="matrix(0.05,0,0,0.05,18.95,0)" xlink:href="#bd"/></g><path fill="#fff" d="M155-56V0h-30v-56H8v-25l114-167h33v167h35v25h-35zm-30-156c-27 46-58 90-88 131h88v-131" id="cg"/><g id="an"><use transform="matrix(0.05,0,0,0.05,0,0)" xlink:href="#bq"/><use transform="matrix(0.05,0,0,0.05,10,0)" xlink:href="#br"/><use transform="matrix(0.05,0,0,0.05,15,0)" xlink:href="#cg"/></g><g id="ao"><use transform="matrix(0.05,0,0,0.05,0,0)" xlink:href="#bc"/><use transform="matrix(0.05,0,0,0.05,10,0)" xlink:href="#bh"/><use transform="matrix(0.05,0,0,0.05,20,0)" xlink:href="#bo"/><use transform="matrix(0.05,0,0,0.05,30,0)" xlink:href="#bi"/><use transform="matrix(0.05,0,0,0.05,33.95,0)" xlink:href="#bP"/></g><g id="ap"><use transform="matrix(0.05,0,0,0.05,0,0)" xlink:href="#bq"/><use transform="matrix(0.05,0,0,0.05,10,0)" xlink:href="#br"/><use transform="matrix(0.05,0,0,0.05,15,0)" xlink:href="#bS"/><use transform="matrix(0.05,0,0,0.05,25,0)" xlink:href="#br"/><use transform="matrix(0.05,0,0,0.05,30,0)" xlink:href="#bk"/></g><g id="aq"><use transform="matrix(0.05,0,0,0.05,0,0)" xlink:href="#bj"/><use transform="matrix(0.05,0,0,0.05,5.95,0)" xlink:href="#bf"/><use transform="matrix(0.05,0,0,0.05,15.949999999999998,0)" xlink:href="#bg"/><use transform="matrix(0.05,0,0,0.05,24.95,0)" xlink:href="#bf"/><use transform="matrix(0.05,0,0,0.05,34.95,0)" xlink:href="#bd"/></g><g id="ar"><use transform="matrix(0.05,0,0,0.05,0,0)" xlink:href="#bq"/><use transform="matrix(0.05,0,0,0.05,10,0)" xlink:href="#br"/><use transform="matrix(0.05,0,0,0.05,15,0)" xlink:href="#bS"/><use transform="matrix(0.05,0,0,0.05,25,0)" xlink:href="#br"/><use transform="matrix(0.05,0,0,0.05,30,0)" xlink:href="#bQ"/></g><g id="as"><use transform="matrix(0.05,0,0,0.05,0,0)" xlink:href="#bd"/><use transform="matrix(0.05,0,0,0.05,5,0)" xlink:href="#bh"/><use transform="matrix(0.05,0,0,0.05,15,0)" xlink:href="#cd"/><use transform="matrix(0.05,0,0,0.05,24,0)" xlink:href="#bf"/></g><use transform="matrix(0.05,0,0,0.05,0,0)" xlink:href="#bh" id="at"/><g id="au"><use transform="matrix(0.05,0,0,0.05,0,0)" xlink:href="#bg"/><use transform="matrix(0.05,0,0,0.05,9,0)" xlink:href="#bf"/><use transform="matrix(0.05,0,0,0.05,19,0)" xlink:href="#bh"/><use transform="matrix(0.05,0,0,0.05,29,0)" xlink:href="#bd"/></g><use transform="matrix(0.05,0,0,0.05,0,0)" xlink:href="#cg" id="av"/><g id="aw"><use transform="matrix(0.05,0,0,0.05,0,0)" xlink:href="#cd"/><use transform="matrix(0.05,0,0,0.05,9,0)" xlink:href="#bf"/><use transform="matrix(0.05,0,0,0.05,19,0)" xlink:href="#bf"/><use transform="matrix(0.05,0,0,0.05,29,0)" xlink:href="#bc"/></g><g id="ax"><use transform="matrix(0.05,0,0,0.05,0,0)" xlink:href="#bg"/><use transform="matrix(0.05,0,0,0.05,9,0)" xlink:href="#bd"/><use transform="matrix(0.05,0,0,0.05,14,0)" xlink:href="#bh"/><use transform="matrix(0.05,0,0,0.05,24,0)" xlink:href="#bo"/><use transform="matrix(0.05,0,0,0.05,34,0)" xlink:href="#bn"/><use transform="matrix(0.05,0,0,0.05,44,0)" xlink:href="#bi"/><use transform="matrix(0.05,0,0,0.05,47.95,0)" xlink:href="#bo"/><use transform="matrix(0.05,0,0,0.05,57.95,0)" xlink:href="#aZ"/></g><g id="ay"><use transform="matrix(0.05,0,0,0.05,0,0)" xlink:href="#bd"/><use transform="matrix(0.05,0,0,0.05,5,0)" xlink:href="#be"/><use transform="matrix(0.05,0,0,0.05,15,0)" xlink:href="#bf"/><use transform="matrix(0.05,0,0,0.05,25,0)" xlink:href="#bj"/><use transform="matrix(0.05,0,0,0.05,30.950000000000003,0)" xlink:href="#bf"/></g><g id="az"><use transform="matrix(0.05,0,0,0.05,0,0)" xlink:href="#ba"/><use transform="matrix(0.05,0,0,0.05,10,0)" xlink:href="#bc"/><use transform="matrix(0.05,0,0,0.05,20,0)" xlink:href="#bd"/><use transform="matrix(0.05,0,0,0.05,25,0)" xlink:href="#bi"/><use transform="matrix(0.05,0,0,0.05,28.950000000000003,0)" xlink:href="#ba"/><use transform="matrix(0.05,0,0,0.05,38.95,0)" xlink:href="#bo"/><use transform="matrix(0.05,0,0,0.05,48.95,0)" xlink:href="#bp"/></g><g id="aA"><use transform="matrix(0.05,0,0,0.05,0,0)" xlink:href="#bS"/><use transform="matrix(0.05,0,0,0.05,10,0)" xlink:href="#br"/><use transform="matrix(0.05,0,0,0.05,15,0)" xlink:href="#bq"/></g><g id="aB"><use transform="matrix(0.05,0,0,0.05,0,0)" xlink:href="#bh"/><use transform="matrix(0.05,0,0,0.05,10,0)" xlink:href="#bg"/><use transform="matrix(0.05,0,0,0.05,19,0)" xlink:href="#cd"/></g><g id="aC"><use transform="matrix(0.05,0,0,0.05,0,0)" xlink:href="#bg"/><use transform="matrix(0.05,0,0,0.05,9,0)" xlink:href="#ba"/><use transform="matrix(0.05,0,0,0.05,19,0)" xlink:href="#ce"/><use transform="matrix(0.05,0,0,0.05,33.95,0)" xlink:href="#bf"/><use transform="matrix(0.05,0,0,0.05,43.95,0)" xlink:href="#ba"/><use transform="matrix(0.05,0,0,0.05,53.95,0)" xlink:href="#bo"/><use transform="matrix(0.05,0,0,0.05,63.95,0)" xlink:href="#bf"/></g><g id="aD"><use transform="matrix(0.05,0,0,0.05,0,0)" xlink:href="#bg"/><use transform="matrix(0.05,0,0,0.05,9,0)" xlink:href="#bi"/><use transform="matrix(0.05,0,0,0.05,12.949999999999998,0)" xlink:href="#bd"/></g><g id="aE"><use transform="matrix(0.05,0,0,0.05,0,0)" xlink:href="#ba"/><use transform="matrix(0.05,0,0,0.05,10,0)" xlink:href="#bo"/></g><g id="aF"><use transform="matrix(0.05,0,0,0.05,0,0)" xlink:href="#bd"/><use transform="matrix(0.05,0,0,0.05,5,0)" xlink:href="#be"/><use transform="matrix(0.05,0,0,0.05,15,0)" xlink:href="#bf"/><use transform="matrix(0.05,0,0,0.05,25,0)" xlink:href="#bj"/><use transform="matrix(0.05,0,0,0.05,30.950000000000003,0)" xlink:href="#bf"/></g><g id="aG"><use transform="matrix(0.05,0,0,0.05,0,0)" xlink:href="#bg"/><use transform="matrix(0.05,0,0,0.05,9,0)" xlink:href="#bf"/><use transform="matrix(0.05,0,0,0.05,19,0)" xlink:href="#bh"/><use transform="matrix(0.05,0,0,0.05,29,0)" xlink:href="#bd"/></g><g id="aH"><use transform="matrix(0.05,0,0,0.05,0,0)" xlink:href="#bS"/><use transform="matrix(0.05,0,0,0.05,10,0)" xlink:href="#br"/><use transform="matrix(0.05,0,0,0.05,15,0)" xlink:href="#bk"/></g></defs></g></svg>